<svg width="1522" height="490" viewBox="0 0 1522 490" fill="none" xmlns="http://www.w3.org/2000/svg">
<g opacity="0.21" clip-path="url(#clip0_164_3017)">
<mask id="mask0_164_3017" style="mask-type:luminance" maskUnits="userSpaceOnUse" x="-255" y="0" width="2031" height="490">
<path d="M1775.65 0H-254.07V490H1775.65V0Z" fill="white"/>
</mask>
<g mask="url(#mask0_164_3017)">
<path d="M359.657 -10.3105C359.657 -10.3105 294.255 44.9652 236.421 73.6474C176.03 103.597 77.8335 178.227 43.4647 217.505C-2.98906 270.595 -94.9922 366.764 -128.379 398.186C-179.993 446.764 -246.215 501.293 -246.215 501.293M1173.71 -8.34656C1173.71 -8.34656 1203.66 18.412 1242.2 23.5673C1272.64 23.5673 1332.78 26.5132 1358.81 35.5963C1384.83 44.6795 1408.39 55.7266 1424.6 70.7015C1440.8 85.6765 1474.19 122.255 1500.7 167.425C1527.21 212.595 1595.95 337.305 1650.94 387.385C1691.2 428.627 1772.7 500.311 1772.7 500.311M-154.892 500.311C-154.892 500.311 -9.56133 360.872 43.4647 288.207C74.3829 245.838 135.769 164.479 212.363 115.381C279.136 74.1385 362.603 26.0223 394.026 -7.3645M1132.95 -8.34656C1132.95 -8.34656 1171 22.3398 1210.28 26.7587C1239.74 27.4951 1297.19 26.7587 1297.19 26.7587C1297.19 26.7587 1335.73 28.9681 1356.84 42.7156C1377.95 56.4631 1399.56 76.1023 1415.27 105.561C1432.94 135.02 1546.85 349.088 1571.4 377.565C1591.04 407.024 1666.65 492.455 1684.33 499.329M-61.6055 499.329C-61.6055 499.329 24.3163 402.605 38.0638 384.439C51.8113 366.273 165.228 208.668 177.994 192.956C190.759 177.245 223.655 144.84 271.771 112.926C312.032 88.8679 395.499 36.8238 430.849 -6.3826M29.7173 497.365C29.7173 497.365 126.932 374.619 190.759 267.585C244.767 184.118 245.258 166.443 360.148 97.2146C412.192 60.8819 453.926 9.81981 468.164 -8.83751M118.094 503.257C118.094 503.257 227.092 343.197 249.677 284.279C274.226 242.054 299.757 190.01 349.837 157.605C386.17 131.092 452.944 68.2467 473.074 35.3509C490.749 10.8018 510.389 -14.2383 510.389 -14.2383M213.345 500.311C213.345 500.311 314.978 306.864 334.126 274.459C347.874 252.856 374.878 204.249 411.21 176.754C432.322 156.132 486.331 90.8319 499.587 61.3729C514.316 40.2607 546.721 -14.2383 546.721 -14.2383M301.721 511.112C301.721 511.112 356.656 389.977 380.278 344.178C404.337 297.535 442.142 242.545 469.637 201.303C489.767 170.862 539.848 75.1203 551.14 49.0983C565.87 19.6394 580.599 -12.7654 580.599 -12.7654M392.062 513.076C392.062 513.076 434.777 409.97 444.597 389.349C454.417 368.728 472.092 335.832 482.403 318.647C492.713 301.463 504.988 276.423 514.316 258.748C523.645 241.072 569.797 123.237 578.635 96.7236C587.473 70.2106 616.932 -13.2564 616.932 -13.2564M486.33 511.112C486.33 511.112 519.717 402.114 538.375 372.656C557.032 343.197 574.707 297.044 582.563 271.513C590.419 245.982 607.112 181.664 613.004 153.187C618.896 124.71 639.517 52.5353 640.499 45.6615C641.481 38.7878 650.318 -3.43668 653.264 -9.32846M580.599 507.185C580.599 507.185 591.892 432.064 613.004 393.277C627.733 362.345 637.062 332.395 641.972 307.355C646.881 282.315 663.084 167.425 665.048 157.605C667.012 147.786 686.16 6.87395 689.106 -9.32846M670.94 500.311C670.94 500.311 680.268 429.118 684.933 415.371C689.597 401.623 698.926 361.608 700.398 347.861C701.871 334.113 706.29 292.134 706.781 272.495C707.272 252.856 716.11 116.363 717.092 112.435C718.074 108.507 725.93 -11.2924 725.93 -11.2924M767.172 503.257C767.172 503.257 763.735 323.066 764.226 309.319C764.717 295.571 764.226 189.028 764.226 189.028C764.226 189.028 762.753 72.6655 762.753 72.1745C762.753 71.6835 764.717 -11.2924 764.717 -11.2924M854.076 495.892C854.076 495.892 844.256 429.118 843.274 421.263C842.292 413.407 833.455 390.331 832.473 385.912C831.491 381.493 822.653 325.03 822.162 306.864C821.671 288.698 812.833 164.97 812.833 164.97L806.942 76.1023L801.05 -8.34656M946.871 499.329C946.871 499.329 925.268 415.862 920.849 402.114C916.431 388.367 885.99 320.611 877.152 256.784C871.26 210.631 863.895 160.551 861.932 146.313C859.968 132.074 836.401 -10.3105 836.401 -10.3105M1038.19 497.365C1038.19 497.365 1008.24 409.479 1001.86 388.858C995.479 368.237 957.182 282.806 947.362 253.347C937.543 223.888 916.922 154.169 911.521 133.056C906.12 111.944 881.571 22.5853 879.607 13.7477C877.643 4.90999 873.224 -11.2924 873.224 -11.2924M1132.46 499.329C1132.46 499.329 1103.49 428.136 1080.91 361.363C1056.36 299.008 1022.97 215.05 990.078 170.862C971.912 137.966 954.727 111.944 941.962 72.6655C927.232 33.8779 910.539 -11.2924 910.539 -11.2924M1222.8 496.383C1222.8 496.383 1180.58 404.078 1160.94 334.359C1142.28 288.207 1101.04 184.118 1077.47 155.641C1058.82 134.038 1024.94 116.363 1018.06 107.525C1011.19 98.6875 979.276 58.427 971.421 38.7877C963.565 19.1484 948.345 -6.87364 946.872 -10.3105M1311.18 497.365C1311.18 497.365 1275.83 432.555 1247.35 335.341C1217.89 256.784 1180.58 137.966 1142.28 101.633C1115.77 85.922 1100.79 93.5323 1085.33 86.6585C1073.54 84.2036 1060.29 80.2757 1043.84 66.0373C1035.74 59.409 1026.41 51.7988 1016.1 37.3148C1005.79 22.8309 984.677 -7.85551 984.677 -8.101M1409.38 501.293C1409.38 501.293 1364.21 448.267 1307.25 287.225C1256.19 141.894 1239.5 93.7777 1202.18 58.427C1179.6 44.6795 1162.17 59.6544 1148.91 56.4631C1138.85 58.427 1106.93 63.5823 1091.47 54.2536C1083.86 51.5532 1060.29 38.7877 1046.54 21.3579C1033.53 7.36487 1021.5 -8.34656 1021.5 -8.34656M1495.79 495.401C1495.79 495.401 1440.8 431.573 1403.48 332.395C1364.21 246.964 1304.31 94.7597 1287.61 68.2466C1270.92 41.7336 1253.49 24.0583 1220.1 30.932C1192.12 34.8599 1187.7 38.0512 1180.09 38.0512C1172.48 39.0332 1144.98 45.416 1133.2 40.7516C1124.61 39.5242 1101.04 31.6685 1087.78 20.1304C1074.53 8.59232 1056.61 -9.57401 1056.61 -9.57401M1590.06 497.365C1590.06 497.365 1514.45 424.7 1457.98 301.463C1418.71 226.834 1370.1 98.1966 1350.46 79.5393C1332.78 54.0082 1316.83 28.4771 1288.1 28.7226C1259.38 28.9681 1209.3 27.2497 1189.66 31.6685C1170.02 31.1775 1159.96 32.896 1149.4 27.4952C1140.81 23.8128 1119.7 12.5202 1115.03 8.34686C1110.37 4.17351 1098.09 -4.66416 1093.92 -10.065M340.683 5.06573L687.47 6.70052L958.654 6.04702L1135.9 2.449L1189.24 1.79482M318.097 23.0682L450.328 25.7672C450.328 25.7672 632.846 33.0466 689.433 32.3924C752.571 31.6623 903.704 33.8629 964.543 27.9753C1002.98 24.2556 1139.83 16.6868 1139.83 16.6868L1210.03 13.7423M293.549 40.0893L473.893 50.5597L641.479 62.3398L767.006 64.7927C767.006 64.7927 891.059 62.3419 934.757 56.9411C967.489 50.8881 1156.03 26.5084 1156.52 26.5084C1157.01 26.5084 1229.83 20.1284 1229.83 20.1284M259.839 61.0362C259.839 61.0362 406.979 62.8404 488.466 81.8165C551.473 88.0354 693.364 108.487 738.531 103.087C776.496 104.723 905.97 103.579 1025.43 63.0001C1099.73 45.6567 1231.63 19.6395 1245.87 22.5853M223.346 82.1484C223.346 82.1484 349.193 79.8567 423.656 101.293C501.722 113.077 633.955 146.618 667.342 146.618C707.434 150.872 822.99 166.088 957.504 111.767C1067.69 68.2948 1080.25 65.2946 1097.27 59.7312C1114.44 54.1123 1156.68 39.9318 1173.38 36.495C1190.07 33.0581 1241.46 23.5673 1246.86 23.5673M182.921 106.859C182.921 106.859 306.964 99.987 357.863 116.841C401.561 124.697 456.708 142.858 468.983 145.804C481.257 148.75 550.158 172.148 565.379 175.585C580.599 179.022 647.694 197.675 667.495 200.784C685.605 203.611 746.545 210.439 782.22 208.149C812.612 206.265 882.08 185.532 916.582 168.555C949.48 152.519 999.944 126.099 1023.13 113.572C1046.7 100.808 1098.96 73.485 1114.13 65.4612C1129.02 57.6069 1169.78 39.9315 1185.82 36.1675C1208.55 30.829 1268.61 22.7506 1283.17 25.6937M137.557 137.915C137.557 137.915 264.726 118.363 371.564 150.178C441.648 172.084 612.815 248.829 701.251 267.364C774.511 278.146 844.542 263.356 927.007 209.42C995.845 163.726 1123.74 69.9648 1168.19 51.6134C1213.88 32.6352 1315.06 24.6166 1403.74 55.3973M71.9976 189.589C71.9976 189.589 251.519 156.375 341.685 185.014C401.417 199.746 574.423 293.352 621.55 307.754C686.014 327.062 785.522 395.468 954.742 243.936C1079.78 143.451 1145.58 75.5292 1235.43 54.4169C1267.34 49.0161 1340.12 48.0855 1463.36 113.539M-3.63383 270.164C-3.63383 270.164 240.745 222.776 357.379 258.061C482.052 294.063 618.588 384.427 740.348 387.367C811.987 395.546 870.266 375.268 1017.55 266.584C1128.18 188.348 1202.5 141.188 1275.49 142.168C1316.73 142.168 1428.04 168.873 1534.75 224.851M-90.5311 360.337C-90.5311 360.337 157.116 346.238 181.598 343.965C210.726 341.184 345.728 335.618 427.888 359.847C520.668 378.182 643.281 410.449 692.379 412.413C742.783 416.671 812.174 426.82 923.948 389.329C1068.26 336.955 1203.96 279.46 1309.03 286.986C1364.02 286.661 1442.4 306.501 1615.22 347.108M-199.309 462.006C-199.309 462.006 254.951 461.342 299.139 460.36C343.328 459.378 501.095 464.626 550.843 467.248C580.209 469.01 806.026 484.974 941.994 468.233C1074.23 457.089 1276.16 441.67 1478.12 453.146C1646.03 461.956 1733.42 463.641 1733.42 463.641M-254.07 -8.34647H1775.65V498.347H-254.07V-8.34647ZM-254.07 -7.36452H1775.65V497.365H-254.07V-7.36452Z" stroke="url(#paint0_linear_164_3017)" stroke-width="0.981964"/>
</g>
</g>
<defs>
<linearGradient id="paint0_linear_164_3017" x1="760.789" y1="-14.2383" x2="760.789" y2="513.076" gradientUnits="userSpaceOnUse">
<stop offset="0.03125" stop-color="#6D6E71" stop-opacity="0"/>
<stop offset="1" stop-color="#6D6E71"/>
</linearGradient>
<clipPath id="clip0_164_3017">
<rect width="1521.58" height="490" fill="white"/>
</clipPath>
</defs>
</svg>
