<svg width="216" height="29" viewBox="0 0 216 29" fill="none" xmlns="http://www.w3.org/2000/svg">
<path fill-rule="evenodd" clip-rule="evenodd" d="M90.7844 20.3839C84.5985 20.3839 80.0996 16.1327 80.0996 10.2873C80.0996 4.44189 84.5985 0.190674 90.8647 0.190674C94.2388 0.190674 97.131 1.40531 98.9787 3.68274L99.1394 3.91049L95.8456 6.94707L95.6046 6.71932C94.3995 5.27695 92.7928 4.59372 91.0254 4.59372C87.5709 4.59372 85.1608 6.94707 85.1608 10.3632C85.1608 13.7794 87.5709 16.1327 91.0254 16.1327C92.8731 16.1327 94.3995 15.4495 95.6046 14.0071L95.8456 13.7794L99.1394 16.816L98.9787 17.0437C97.131 19.3211 94.2388 20.5358 90.7844 20.5358V20.3839ZM43.3854 20.0803H33.1826V0.494385H42.9033C47.6432 0.494385 50.455 2.46816 50.455 5.73249C50.455 7.47852 49.6516 8.9209 48.2859 9.83187C50.2943 10.6669 51.419 12.413 51.419 14.6145C51.419 18.1066 48.6072 20.0803 43.4657 20.0803H43.3854ZM38.1635 16.2087H43.064C45.9561 16.2087 46.2775 15.07 46.2775 14.159C46.2775 12.7925 45.2331 12.1093 43.064 12.1093H38.1635V16.2087ZM38.1635 8.31358H42.2606C44.2691 8.31358 45.3134 7.63035 45.3134 6.3398C45.3134 5.88432 45.3134 4.44194 42.2606 4.44194H38.1635V8.31358ZM59.2922 20.0803H54.231V0.494385H59.2922V20.0803ZM68.1293 20.0803H73.1101V4.66968H79.2961V0.494385H61.9434V4.66968H68.1293V20.0803ZM99.8623 10.2873C99.8623 16.1327 104.441 20.3839 110.708 20.3839C116.974 20.3839 121.553 16.1327 121.553 10.2873C121.553 4.44189 116.974 0.190674 110.708 0.190674C104.441 0.190674 99.8623 4.44189 99.8623 10.2873ZM105.004 10.2873C105.004 6.94707 107.414 4.5178 110.708 4.5178C114.002 4.5178 116.412 6.94707 116.412 10.2873C116.412 13.6275 114.002 16.0568 110.708 16.0568C107.414 16.0568 105.004 13.6275 105.004 10.2873ZM129.024 20.0803H123.963V0.494385H129.024V20.0803ZM146.297 20.0803H150.394V0.494385H145.413V11.4261L136.335 0.494385H132.238V20.0803H137.219V9.14864L146.297 20.0803ZM158.267 20.0803H153.206V0.494385H158.267V20.0803ZM160.918 18.1065C162.766 19.473 165.899 20.3839 168.952 20.3839V20.4599C175.138 20.4599 177.387 17.1196 177.387 14.3108C177.387 10.0968 173.44 9.16479 170.241 8.40942L170.157 8.38944C168.068 7.93396 166.22 7.47847 166.22 6.26384C166.22 5.0492 167.425 4.36597 169.594 4.36597C171.281 4.36597 173.049 4.89737 174.736 5.80835L175.057 5.96018L176.664 2.08854L176.423 1.93671C174.656 0.79799 172.165 0.190674 169.594 0.190674C164.453 0.190674 161.159 2.61994 161.239 6.33975C161.239 10.6297 165.187 11.5619 168.387 12.3174L168.47 12.337C170.558 12.7925 172.406 13.248 172.406 14.4626C172.406 15.9809 170.317 16.2086 169.032 16.2086C166.863 16.2086 164.453 15.5254 162.846 14.3108L162.525 14.083L160.757 17.9547L160.918 18.1065ZM189.759 20.0803H184.778V4.66968H178.592V0.494385H195.944V4.66968H189.759V20.0803ZM198.194 4.21399C198.194 4.59356 198.917 4.89722 198.917 4.89722C199.319 4.89722 199.64 4.59356 199.64 4.21399C199.64 3.83442 199.319 3.53076 198.917 3.53076C198.515 3.53076 198.194 3.83442 198.194 4.21399ZM202.934 4.89743C201.488 4.89743 200.524 3.98645 200.524 2.69591C200.524 1.40536 201.568 0.494385 202.934 0.494385C203.737 0.494385 204.38 0.798043 204.782 1.25353L203.978 2.01268C203.978 2.01268 203.336 1.48127 203.014 1.48127C202.291 1.48127 201.729 2.01268 201.729 2.69591C201.729 3.37914 202.291 3.91054 203.014 3.91054C203.416 3.91054 203.737 3.75871 203.978 3.45505L204.782 4.06237C204.38 4.59377 203.737 4.89743 202.934 4.89743ZM205.183 2.69591C205.183 3.98645 206.227 4.89743 207.674 4.89743C209.12 4.89743 210.164 3.98645 210.164 2.69591C210.164 1.40536 209.12 0.494385 207.674 0.494385C206.227 0.494385 205.183 1.40536 205.183 2.69591ZM206.468 2.69591C206.468 2.01268 206.951 1.48127 207.674 1.48127C208.477 1.48127 208.959 2.01268 208.959 2.69591C208.959 3.37914 208.397 3.91054 207.674 3.91054C206.951 3.91054 206.468 3.37914 206.468 2.69591ZM210.968 4.66971V0.64624V0.570312H211.932L213.458 2.99958L214.985 0.570312H215.949V4.82153H214.904V2.62L213.78 4.36604H213.217L212.092 2.69592V4.82153H210.968V4.66971ZM32.6206 26.0015C32.6206 25.9757 32.621 25.9499 32.6217 25.9243C32.6625 27.3286 33.8521 28.3549 35.3521 28.3549C36.1554 28.3549 36.7981 28.1271 37.2801 27.6716L36.9588 27.368C36.5571 27.8235 35.9947 27.9753 35.4324 27.9753C34.2273 27.9753 33.2633 27.1402 33.2633 25.9256C33.2633 24.711 34.147 23.8759 35.4324 23.8759C35.9947 23.8759 36.5571 24.1037 36.9588 24.4832L37.2801 24.1796C36.7981 23.7241 36.0751 23.4963 35.3521 23.4963C33.7741 23.4963 32.6611 24.5214 32.6217 25.9243C32.621 25.8996 32.6206 25.8747 32.6206 25.8497V26.0015ZM40.7346 26.8366L41.9396 28.4308V28.3549H42.502L41.2166 26.6847C42.0199 26.457 42.4216 25.9256 42.4216 25.1665C42.4216 24.1037 41.6182 23.4963 40.3329 23.4963H38.4048V28.3549H38.9671V26.8366H40.3329H40.7346ZM40.3329 24.0277C41.3772 24.0277 41.9396 24.4832 41.9396 25.2424C41.9396 26.0015 41.3772 26.457 40.3329 26.457H38.9671V24.0277H40.3329ZM45.4743 26.7607V28.4308H44.912V26.7607L42.8232 23.5723H43.3856L45.153 26.3052L46.9204 23.5723H47.4828L45.394 26.7607H45.4743ZM50.2943 26.9125C51.5797 26.9125 52.383 26.3052 52.383 25.2424C52.383 24.1796 51.5797 23.5723 50.2943 23.5723H48.3662V28.4308H48.9286V26.9125H50.2943ZM50.214 24.0278C51.2583 24.0278 51.8207 24.4832 51.8207 25.2424C51.8207 26.0015 51.2583 26.457 50.214 26.457H48.8482V24.0278H50.214ZM54.3113 24.0278H52.5439V23.5723H56.7214V24.0278H54.8737V28.4308H54.3113V24.0278ZM59.8545 23.4963C58.2478 23.4963 57.123 24.5591 57.123 26.0015C57.123 27.4439 58.2478 28.5067 59.8545 28.5067C61.4612 28.5067 62.5859 27.4439 62.5859 26.0015C62.5859 24.5591 61.4612 23.4963 59.8545 23.4963ZM59.8545 23.9518C61.1399 23.9518 62.0236 24.8628 62.0236 26.0015C62.0236 27.2162 61.0595 28.0512 59.8545 28.0512C58.6494 28.0512 57.6854 27.2162 57.6854 26.0015C57.6854 24.7869 58.5691 23.9518 59.8545 23.9518ZM63.3892 26.0015C63.3892 25.9757 63.3895 25.9499 63.3902 25.9243C63.431 27.3286 64.6207 28.3549 66.1206 28.3549C66.924 28.3549 67.5667 28.1271 68.0487 27.6716L67.7273 27.368C67.3257 27.8235 66.7633 27.9753 66.2009 27.9753C64.9959 27.9753 64.0319 27.1402 64.0319 25.9256C64.0319 24.711 64.9156 23.8759 66.2009 23.8759C66.7633 23.8759 67.3257 24.1037 67.7273 24.4832L68.0487 24.1796C67.5667 23.7241 66.8436 23.4963 66.1206 23.4963C64.5427 23.4963 63.4296 24.5214 63.3902 25.9243C63.3895 25.8996 63.3892 25.8747 63.3892 25.8497V26.0015ZM69.0933 23.5723V26.3811H69.2539C69.2539 27.7476 70.0573 28.5067 71.3427 28.5067C72.6281 28.5067 73.4314 27.7476 73.4314 26.3811V23.5723H72.8691V26.3811C72.8691 27.5198 72.3067 28.0512 71.2624 28.0512C70.218 28.0512 69.6556 27.5198 69.6556 26.3811V23.5723H69.0933ZM78.5729 28.4308L77.3678 26.8366H76.9662H75.6004V28.3549H75.0381V23.4963H76.9662C78.2516 23.4963 79.0549 24.1037 79.0549 25.1665C79.0549 25.9256 78.6532 26.457 77.8499 26.6847L79.1353 28.3549H78.5729V28.4308ZM78.5729 25.2424C78.5729 24.4832 78.0105 24.0277 76.9662 24.0277H75.6004V26.457H76.9662C78.0105 26.457 78.5729 26.0015 78.5729 25.2424ZM82.7507 26.8366L83.9557 28.4308V28.3549H84.5181L83.2327 26.6847C84.036 26.457 84.4377 25.9256 84.4377 25.1665C84.4377 24.1037 83.6344 23.4963 82.349 23.4963H80.4209V28.3549H80.9833V26.8366H82.349H82.7507ZM82.349 24.0277C83.3933 24.0277 83.9557 24.4832 83.9557 25.2424C83.9557 26.0015 83.3933 26.457 82.349 26.457H80.9833V24.0277H82.349ZM89.4184 27.9753V28.0512H86.3656V26.2293H89.0167V25.7738H86.3656V24.0278H89.338V23.5723H85.8032V28.4308H89.4184V28.0512H89.4987L89.4184 27.9753ZM95.0418 28.4308V23.5723H94.4794V27.5198L91.1856 23.5723H90.7036V28.4308H91.266V24.4832L94.5598 28.4308H95.0418ZM96.3276 26.0015C96.3276 25.9757 96.328 25.9499 96.3287 25.9243C96.3695 27.3286 97.5591 28.3549 99.0591 28.3549C99.8624 28.3549 100.505 28.1271 100.987 27.6716L100.666 27.368C100.264 27.8235 99.7018 27.9753 99.1394 27.9753C97.9344 27.9753 96.9703 27.1402 96.9703 25.9256C96.9703 24.711 97.854 23.8759 99.1394 23.8759C99.7018 23.8759 100.264 24.1037 100.666 24.4832L100.987 24.1796C100.505 23.7241 99.7821 23.4963 99.0591 23.4963C97.4811 23.4963 96.3681 24.5214 96.3287 25.9243L96.3282 25.9044L96.3278 25.8815L96.3276 25.8497V26.0015ZM103.799 28.4308V26.7607H103.718L105.807 23.5723H105.245L103.477 26.3052L101.71 23.5723H101.147L103.236 26.7607V28.4308H103.799ZM113.519 23.5723V28.4308H113.037L109.744 24.4832V28.4308H109.181V23.5723H109.663L112.957 27.5198V23.5723H113.519ZM118.902 28.0512V27.9753L118.983 28.0512H118.902ZM115.849 28.0512H118.902V28.4308H115.287V23.5723H118.822V24.0278H115.849V25.7738H118.501V26.2293H115.849V28.0512ZM127.257 23.5723L125.49 28.4308H124.927L123.401 24.2555L121.875 28.4308H121.312L119.545 23.5723H120.107L121.634 27.7476L123.16 23.5723H123.642L125.168 27.8235L126.695 23.5723H127.257ZM127.98 27.4439L127.739 27.8235V27.8994C128.141 28.279 128.864 28.5067 129.667 28.5067C130.953 28.5067 131.595 27.8235 131.595 27.1402C131.595 26.2138 130.691 26.014 129.841 25.8265C129.09 25.6606 128.382 25.5042 128.382 24.8628C128.382 24.3314 128.784 23.9518 129.748 23.9518C130.23 23.9518 130.712 24.0277 131.194 24.3314L131.354 23.9518C130.953 23.6482 130.31 23.4963 129.748 23.4963C128.382 23.4963 127.82 24.1796 127.82 24.8628C127.82 25.8392 128.742 26.0525 129.599 26.2505C130.341 26.422 131.033 26.582 131.033 27.2161C131.033 27.6716 130.631 28.0512 129.667 28.0512C129.025 28.0512 127.98 27.4439 127.98 27.4439ZM139.066 28.5067L138.343 27.8235C137.941 28.279 137.299 28.5067 136.656 28.5067C135.612 28.5067 134.889 27.9753 134.889 27.2921C134.889 26.6848 135.21 26.3052 136.174 25.7738C135.692 25.3183 135.531 25.0146 135.531 24.6351C135.531 24.0278 136.013 23.5723 136.817 23.5723C137.54 23.5723 138.022 23.9518 138.022 24.5592C138.022 25.0146 137.7 25.3942 136.897 25.8497L138.343 27.2162C138.343 27.2162 138.584 26.6088 138.665 26.3052L139.066 26.457C138.986 26.9125 138.825 27.2921 138.584 27.5957L139.307 28.279L139.066 28.5067ZM138.022 27.5198L136.495 26.0015C135.692 26.457 135.451 26.7607 135.451 27.2162C135.451 27.7476 135.933 28.1271 136.736 28.1271C137.299 28.1271 137.781 27.9753 138.102 27.5957L138.022 27.5198ZM136.013 24.5592C136.013 24.5592 136.094 25.0146 136.576 25.4701C137.299 25.0906 137.54 24.7869 137.54 24.4832C137.54 24.1796 137.299 23.8759 136.817 23.8759C136.335 23.8759 136.013 24.1796 136.013 24.5592ZM141.958 24.0278H143.726V28.4308H144.288V24.0278H146.136V23.5723H141.958V24.0278ZM150.715 27.9753V28.0512H147.662V26.2293H150.314V25.7738H147.662V24.0278H150.635V23.5723H147.1V28.4308H150.715V28.0512H150.796L150.715 27.9753ZM151.52 25.9243C151.519 25.9499 151.519 25.9757 151.519 26.0015V25.8497C151.519 25.8747 151.519 25.8995 151.52 25.9243ZM151.52 25.9243C151.559 24.5214 152.672 23.4963 154.25 23.4963C154.973 23.4963 155.696 23.7241 156.178 24.1796L155.857 24.4832C155.455 24.1037 154.893 23.8759 154.33 23.8759C153.045 23.8759 152.161 24.711 152.161 25.9256C152.161 27.1402 153.125 27.9753 154.33 27.9753C154.893 27.9753 155.455 27.8235 155.857 27.368L156.178 27.6716C155.696 28.1271 155.053 28.3549 154.25 28.3549C152.75 28.3549 151.56 27.3285 151.52 25.9243ZM161.641 23.5723V28.4308H161.079V26.1534H157.865V28.4308H157.303V23.5723H157.865V25.7738H161.079V23.5723H161.641ZM167.666 28.4308V23.5723H167.104V27.5198L163.81 23.5723H163.328V28.4308H163.89V24.4832L167.184 28.4308H167.666ZM168.952 26.0015C168.952 24.5591 170.076 23.4963 171.683 23.4963C173.29 23.4963 174.415 24.5591 174.415 26.0015C174.415 27.4439 173.29 28.5067 171.683 28.5067C170.076 28.5067 168.952 27.4439 168.952 26.0015ZM173.852 26.0015C173.852 24.8628 172.968 23.9518 171.683 23.9518C170.398 23.9518 169.514 24.7869 169.514 26.0015C169.514 27.2162 170.478 28.0512 171.683 28.0512C172.888 28.0512 173.852 27.2162 173.852 26.0015ZM176.182 23.5723H175.62V28.4308H179.074V27.9753H176.182V23.5723ZM179.476 26.0015C179.476 24.5591 180.601 23.4963 182.208 23.4963C183.814 23.4963 184.939 24.5591 184.939 26.0015C184.939 27.4439 183.814 28.5067 182.208 28.5067C180.601 28.5067 179.476 27.4439 179.476 26.0015ZM184.377 26.0015C184.377 24.8628 183.493 23.9518 182.208 23.9518C180.922 23.9518 180.038 24.7869 180.038 26.0015C180.038 27.2162 181.002 28.0512 182.208 28.0512C183.413 28.0512 184.377 27.2162 184.377 26.0015ZM190.321 26.0015H189.759V27.5957C189.357 27.8994 188.875 27.9753 188.393 27.9753C187.188 27.9753 186.224 27.1402 186.224 25.9256C186.224 24.711 187.188 23.8759 188.473 23.8759C189.036 23.8759 189.598 24.1037 190 24.4832L190.321 24.1796C189.839 23.7241 189.196 23.4963 188.393 23.4963C186.786 23.4963 185.662 24.5591 185.662 26.0015C185.662 27.4439 186.786 28.5067 188.393 28.5067C189.116 28.5067 189.839 28.279 190.321 27.8994V26.0015ZM193.615 28.4308H193.053V26.7607L190.964 23.5723H191.526L193.294 26.3052L195.061 23.5723H195.623L193.535 26.7607H193.615V28.4308ZM0.48584 22.3578L7.39478 28.6587H30.2907V0.494385H0.48584V22.3578ZM22.8194 12.6407C23.1408 10.591 21.4537 9.52821 19.2043 8.76907H19.2846L20.0076 5.96023L18.2402 5.50474L17.5172 8.23767C17.3164 8.19971 17.1356 8.16175 16.9548 8.12379C16.7741 8.08584 16.5933 8.04788 16.3925 8.00992H16.0711L16.7942 5.277L15.0268 4.82151L14.3037 7.63035H14.0627C13.7414 7.55443 13.179 7.40261 13.179 7.40261L10.6886 6.79529L10.2066 8.61724L11.492 8.9209C12.215 9.07273 12.2953 9.90778 12.2953 9.90778L11.492 13.0962L10.2869 17.4992C10.2066 17.6511 9.96556 18.0306 9.48354 17.8788L8.19815 17.5752L7.31445 19.473L9.64421 20.0044C9.81642 20.0044 9.96556 20.048 10.104 20.0885C10.2239 20.1235 10.3357 20.1562 10.4476 20.1562C10.6082 20.2322 10.9296 20.3081 10.9296 20.3081L10.2066 23.1169L11.974 23.5724L12.697 20.7636C13.179 20.9154 13.661 21.0672 14.1431 21.1431L13.42 23.8761L15.1874 24.3315L15.9105 21.5227C18.9633 22.0541 21.2127 21.8264 22.1767 19.2453C22.9801 17.1197 22.1767 15.905 20.57 15.1459C21.6947 14.8422 22.5784 14.159 22.8194 12.6407ZM18.7222 18.0306C18.2402 19.9285 15.0268 19.1694 13.5807 18.7898H13.5004C13.42 18.7139 13.179 18.7139 13.179 18.7139L14.1431 14.9941C14.3037 15.07 14.4644 15.07 14.6251 15.07C14.7173 15.0929 14.8152 15.1167 14.9175 15.1416C16.5076 15.528 19.1751 16.1762 18.7222 18.0306ZM14.9753 13.4071L14.9464 13.3999V13.3239H14.6251L15.5088 9.9837C15.6695 10.0596 15.7498 10.0596 15.9105 10.0596C17.1958 10.2874 19.7666 10.8188 19.2846 12.6407C18.8064 14.3729 16.1934 13.7142 14.9753 13.4071Z" fill="white"/>
</svg>
