<svg width="106" height="108" viewBox="0 0 106 108" fill="none" xmlns="http://www.w3.org/2000/svg">
<g clip-path="url(#clip0_261_59)">
<path d="M53.0747 107.373C82.3282 107.373 106.043 83.7924 106.043 54.7046C106.043 25.6166 82.3282 2.03613 53.0747 2.03613C23.8211 2.03613 0.106445 25.6166 0.106445 54.7046C0.106445 83.7924 23.8211 107.373 53.0747 107.373Z" fill="#03110C"/>
<path d="M53.0747 103.347C40.0084 103.347 27.7238 98.2869 18.4842 89.0996C9.24455 79.9123 4.15588 67.6971 4.15588 54.7049C4.15588 41.7125 9.24455 29.4975 18.4842 20.3102C27.7238 11.1229 40.0084 6.06299 53.0747 6.06299C66.1409 6.06299 78.4257 11.1229 87.6651 20.3102C96.9047 29.4975 101.993 41.7125 101.993 54.7049C101.993 67.6971 96.9047 79.9123 87.6651 89.0996C78.4257 98.2869 66.1409 103.347 53.0747 103.347ZM53.0747 8.22913C27.301 8.22913 6.33435 29.0786 6.33435 54.7049C6.33435 80.331 27.3025 101.181 53.0747 101.181C78.8467 101.181 99.8165 80.331 99.8165 54.7049C99.8165 29.0786 78.8467 8.22913 53.0747 8.22913Z" fill="url(#paint0_linear_261_59)"/>
<path d="M53.0745 107.405C38.9175 107.405 25.6074 101.923 15.5981 91.9692C5.58744 82.0152 0.074585 68.7819 0.074585 54.7049C0.074585 40.628 5.58744 27.393 15.5981 17.4405C25.6074 7.48653 38.9175 2.00488 53.0745 2.00488C67.2317 2.00488 80.5418 7.48653 90.551 17.4405C100.562 27.3946 106.075 40.628 106.075 54.7049C106.075 68.7819 100.562 82.0167 90.551 91.9692C80.5403 101.923 67.2301 107.405 53.0745 107.405ZM53.0745 4.16801C25.0498 4.16801 2.25155 26.8387 2.25155 54.7034C2.25155 82.5681 25.0514 105.239 53.0745 105.239C81.0978 105.239 103.898 82.5681 103.898 54.7034C103.898 26.8387 81.0978 4.16801 53.0745 4.16801Z" fill="url(#paint1_linear_261_59)"/>
<g clip-path="url(#clip1_261_59)">
<path d="M67.6034 36.2881C69.3605 36.2881 71.0456 36.9821 72.288 38.2175C73.5304 39.4529 74.2284 41.1285 74.2284 42.8756V64.8339C74.2284 66.581 73.5304 68.2566 72.288 69.492C71.0456 70.7274 69.3605 71.4214 67.6034 71.4214H36.6868C34.9297 71.4214 33.2446 70.7274 32.0022 69.492C30.7598 68.2566 30.0618 66.581 30.0618 64.8339V42.8756C30.0618 41.1285 30.7598 39.4529 32.0022 38.2175C33.2446 36.9821 34.9297 36.2881 36.6868 36.2881H67.6034ZM69.8118 49.4631H34.4784V64.8339C34.4785 65.3717 34.6771 65.8909 35.0365 66.2928C35.3959 66.6947 35.8912 66.9515 36.4284 67.0144L36.6868 67.0298H67.6034C68.1443 67.0297 68.6664 66.8322 69.0706 66.4748C69.4748 66.1174 69.733 65.625 69.7963 65.0908L69.8118 64.8339V49.4631ZM63.1868 56.0506C63.7496 56.0512 64.291 56.2655 64.7003 56.6497C65.1096 57.0339 65.3559 57.559 65.3889 58.1177C65.4218 58.6764 65.239 59.2266 64.8778 59.6558C64.5165 60.085 64.0041 60.3608 63.4451 60.4269L63.1868 60.4423H56.5618C55.9989 60.4416 55.4575 60.2273 55.0482 59.8431C54.639 59.4589 54.3927 58.9338 54.3597 58.3751C54.3267 57.8164 54.5095 57.2662 54.8708 56.8371C55.232 56.4079 55.7445 56.1321 56.3034 56.066L56.5618 56.0506H63.1868ZM67.6034 40.6798H36.6868C36.1011 40.6798 35.5394 40.9111 35.1252 41.3229C34.7111 41.7347 34.4784 42.2932 34.4784 42.8756V45.0714H69.8118V42.8756C69.8118 42.2932 69.5791 41.7347 69.165 41.3229C68.7508 40.9111 68.1891 40.6798 67.6034 40.6798Z" fill="url(#paint2_linear_261_59)"/>
</g>
</g>
<defs>
<linearGradient id="paint0_linear_261_59" x1="52.3414" y1="14.5257" x2="54.0939" y2="111.792" gradientUnits="userSpaceOnUse">
<stop offset="0.25" stop-color="#1B4C39"/>
<stop offset="0.47" stop-color="#1C8E64"/>
<stop offset="0.81" stop-color="#1FF9AB"/>
</linearGradient>
<linearGradient id="paint1_linear_261_59" x1="52.7519" y1="111.574" x2="53.342" y2="6.17445" gradientUnits="userSpaceOnUse">
<stop offset="0.27" stop-color="#1B4C39"/>
<stop offset="0.34" stop-color="#1B513C"/>
<stop offset="0.43" stop-color="#1B6147"/>
<stop offset="0.53" stop-color="#1C7C58"/>
<stop offset="0.64" stop-color="#1CA171"/>
<stop offset="0.75" stop-color="#1ED090"/>
<stop offset="0.84" stop-color="#1FF9AB"/>
</linearGradient>
<linearGradient id="paint2_linear_261_59" x1="58.2611" y1="91.721" x2="54.7696" y2="31.3067" gradientUnits="userSpaceOnUse">
<stop offset="0.17" stop-color="#1B4C39"/>
<stop offset="0.23" stop-color="#1B6248"/>
<stop offset="0.45" stop-color="#1DB37D"/>
<stop offset="0.61" stop-color="#1EE59E"/>
<stop offset="0.69" stop-color="#1FF9AB"/>
</linearGradient>
<clipPath id="clip0_261_59">
<rect width="106" height="107.1" fill="white" transform="translate(0 0.304688)"/>
</clipPath>
<clipPath id="clip1_261_59">
<rect width="53" height="52.7" fill="white" transform="translate(25.6451 27.5049)"/>
</clipPath>
</defs>
</svg>
