<svg width="106" height="108" viewBox="0 0 106 108" fill="none" xmlns="http://www.w3.org/2000/svg">
<g clip-path="url(#clip0_261_38)">
<path d="M53.0747 107.678C82.3282 107.678 106.043 83.9629 106.043 54.7095C106.043 25.4559 82.3282 1.74121 53.0747 1.74121C23.8211 1.74121 0.106445 25.4559 0.106445 54.7095C0.106445 83.9629 23.8211 107.678 53.0747 107.678Z" fill="#03110C"/>
<path d="M53.0747 103.628C40.0084 103.628 27.7238 98.54 18.4842 89.3004C9.24455 80.0608 4.15588 67.776 4.15588 54.7098C4.15588 41.6434 9.24455 29.3589 18.4842 20.1193C27.7238 10.8797 40.0084 5.79102 53.0747 5.79102C66.1409 5.79102 78.4257 10.8797 87.6651 20.1193C96.9047 29.3589 101.993 41.6434 101.993 54.7098C101.993 67.776 96.9047 80.0608 87.6651 89.3004C78.4257 98.54 66.1409 103.628 53.0747 103.628ZM53.0747 7.96949C27.301 7.96949 6.33435 28.9376 6.33435 54.7098C6.33435 80.4818 27.3025 101.45 53.0747 101.45C78.8467 101.45 99.8165 80.4818 99.8165 54.7098C99.8165 28.9376 78.8467 7.96949 53.0747 7.96949Z" fill="url(#paint0_linear_261_38)"/>
<path d="M53.0745 107.709C38.9175 107.709 25.6074 102.197 15.5981 92.1859C5.58744 82.1753 0.074585 68.8666 0.074585 54.7095C0.074585 40.5525 5.58744 27.2421 15.5981 17.233C25.6074 7.22233 38.9175 1.70947 53.0745 1.70947C67.2317 1.70947 80.5418 7.22233 90.551 17.233C100.562 27.2437 106.075 40.5525 106.075 54.7095C106.075 68.8666 100.562 82.1768 90.551 92.1859C80.5403 102.197 67.2301 107.709 53.0745 107.709ZM53.0745 3.88492C25.0498 3.88492 2.25155 26.6846 2.25155 54.7079C2.25155 82.7313 25.0514 105.531 53.0745 105.531C81.0978 105.531 103.898 82.7313 103.898 54.7079C103.898 26.6846 81.0978 3.88492 53.0745 3.88492Z" fill="url(#paint1_linear_261_38)"/>
<path d="M43.1241 62.0927L53 75.2971L62.876 62.0927L53 68.0018L43.1241 62.0927ZM66.1739 54.2638L53 33.4499L39.8261 54.2638L53 62.1476L66.1739 54.2638ZM32.4839 56.3482L53 23.9355L73.5161 56.3482L53 83.7743L32.4839 56.3482Z" fill="url(#paint2_linear_261_38)"/>
</g>
<defs>
<linearGradient id="paint0_linear_261_38" x1="52.3414" y1="14.3019" x2="54.1139" y2="112.121" gradientUnits="userSpaceOnUse">
<stop offset="0.25" stop-color="#1B4C39"/>
<stop offset="0.47" stop-color="#1C8E64"/>
<stop offset="0.81" stop-color="#1FF9AB"/>
</linearGradient>
<linearGradient id="paint1_linear_261_38" x1="52.7519" y1="111.903" x2="53.3487" y2="5.90281" gradientUnits="userSpaceOnUse">
<stop offset="0.27" stop-color="#1B4C39"/>
<stop offset="0.34" stop-color="#1B513C"/>
<stop offset="0.43" stop-color="#1B6147"/>
<stop offset="0.53" stop-color="#1C7C58"/>
<stop offset="0.64" stop-color="#1CA171"/>
<stop offset="0.75" stop-color="#1ED090"/>
<stop offset="0.84" stop-color="#1FF9AB"/>
</linearGradient>
<linearGradient id="paint2_linear_261_38" x1="58.682" y1="118.348" x2="47.8649" y2="16.2538" gradientUnits="userSpaceOnUse">
<stop offset="0.17" stop-color="#1B4C39"/>
<stop offset="0.23" stop-color="#1B6248"/>
<stop offset="0.45" stop-color="#1DB37D"/>
<stop offset="0.61" stop-color="#1EE59E"/>
<stop offset="0.69" stop-color="#1FF9AB"/>
</linearGradient>
<clipPath id="clip0_261_38">
<rect width="106" height="107.71" fill="white"/>
</clipPath>
</defs>
</svg>
