<svg width="106" height="108" viewBox="0 0 106 108" fill="none" xmlns="http://www.w3.org/2000/svg">
<g clip-path="url(#clip0_261_65)">
<path d="M53.0747 107.473C82.3282 107.473 106.043 83.8925 106.043 54.8047C106.043 25.7167 82.3282 2.13623 53.0747 2.13623C23.8211 2.13623 0.106445 25.7167 0.106445 54.8047C0.106445 83.8925 23.8211 107.473 53.0747 107.473Z" fill="#03110C"/>
<path d="M53.0747 103.447C40.0084 103.447 27.7238 98.387 18.4842 89.1997C9.24455 80.0124 4.15588 67.7972 4.15588 54.805C4.15588 41.8126 9.24455 29.5976 18.4842 20.4103C27.7238 11.2229 40.0084 6.16309 53.0747 6.16309C66.1409 6.16309 78.4257 11.2229 87.6651 20.4103C96.9047 29.5976 101.993 41.8126 101.993 54.805C101.993 67.7972 96.9047 80.0124 87.6651 89.1997C78.4257 98.387 66.1409 103.447 53.0747 103.447ZM53.0747 8.32923C27.301 8.32923 6.33435 29.1787 6.33435 54.805C6.33435 80.4311 27.3025 101.281 53.0747 101.281C78.8467 101.281 99.8165 80.4311 99.8165 54.805C99.8165 29.1787 78.8467 8.32923 53.0747 8.32923Z" fill="url(#paint0_linear_261_65)"/>
<path d="M53.0745 107.505C38.9175 107.505 25.6074 102.023 15.5981 92.0693C5.58744 82.1153 0.074585 68.882 0.074585 54.805C0.074585 40.7281 5.58744 27.4931 15.5981 17.5406C25.6074 7.58663 38.9175 2.10498 53.0745 2.10498C67.2317 2.10498 80.5418 7.58663 90.551 17.5406C100.562 27.4946 106.075 40.7281 106.075 54.805C106.075 68.882 100.562 82.1168 90.551 92.0693C80.5403 102.023 67.2301 107.505 53.0745 107.505ZM53.0745 4.26811C25.0498 4.26811 2.25155 26.9387 2.25155 54.8035C2.25155 82.6682 25.0514 105.339 53.0745 105.339C81.0978 105.339 103.898 82.6682 103.898 54.8035C103.898 26.9387 81.0978 4.26811 53.0745 4.26811Z" fill="url(#paint1_linear_261_65)"/>
<path d="M41.3022 51.6599H36.6231V67.7249H41.3022V51.6599ZM55.3395 51.6599H50.6604V67.7249H55.3395V51.6599ZM75.2258 72.3149H30.7742V76.9049H75.2258V72.3149ZM69.3769 51.6599H64.6978V67.7249H69.3769V51.6599ZM53 36.1916L65.1891 42.4799H40.8109L53 36.1916ZM53 31.0049L30.7742 42.4799V47.0699H75.2258V42.4799L53 31.0049Z" fill="url(#paint2_linear_261_65)"/>
</g>
<defs>
<linearGradient id="paint0_linear_261_65" x1="52.3414" y1="14.6258" x2="54.0939" y2="111.892" gradientUnits="userSpaceOnUse">
<stop offset="0.25" stop-color="#1B4C39"/>
<stop offset="0.47" stop-color="#1C8E64"/>
<stop offset="0.81" stop-color="#1FF9AB"/>
</linearGradient>
<linearGradient id="paint1_linear_261_65" x1="52.7519" y1="111.675" x2="53.342" y2="6.27454" gradientUnits="userSpaceOnUse">
<stop offset="0.27" stop-color="#1B4C39"/>
<stop offset="0.34" stop-color="#1B513C"/>
<stop offset="0.43" stop-color="#1B6147"/>
<stop offset="0.53" stop-color="#1C7C58"/>
<stop offset="0.64" stop-color="#1CA171"/>
<stop offset="0.75" stop-color="#1ED090"/>
<stop offset="0.84" stop-color="#1FF9AB"/>
</linearGradient>
<linearGradient id="paint2_linear_261_65" x1="59.1555" y1="103.425" x2="53.2478" y2="24.6765" gradientUnits="userSpaceOnUse">
<stop offset="0.17" stop-color="#1B4C39"/>
<stop offset="0.23" stop-color="#1B6248"/>
<stop offset="0.45" stop-color="#1DB37D"/>
<stop offset="0.61" stop-color="#1EE59E"/>
<stop offset="0.69" stop-color="#1FF9AB"/>
</linearGradient>
<clipPath id="clip0_261_65">
<rect width="106" height="107.1" fill="white" transform="translate(0 0.404785)"/>
</clipPath>
</defs>
</svg>
