<svg width="239" height="54" viewBox="0 0 239 54" fill="none" xmlns="http://www.w3.org/2000/svg">
<path d="M34.6635 39.3031L24.7597 43.5022V43.0823C22.8484 43.5022 20.6765 43.8381 18.6784 43.9221C9.29574 43.9221 1.91127 39.0512 1.73752 33.4244V31.3249C4.77818 35.608 11.1201 38.5473 18.6784 38.4633C21.1978 38.5473 23.8909 38.2114 26.0628 37.6235L26.9316 35.524C24.3253 36.2798 21.4584 36.7837 18.6784 36.7837C9.29574 36.7837 1.91127 32.0807 1.73752 26.2861V24.6064C4.77818 28.6375 11.1201 31.4929 18.6784 31.3249C22.0665 31.4929 25.3678 30.821 28.2347 29.6453L28.6691 27.5458C25.8891 28.8895 22.414 29.7293 18.7652 29.6453C9.38262 29.7293 1.99815 25.0263 1.8244 19.1477V17.4681C4.86506 21.5831 11.207 24.4385 18.7652 24.6064C23.0222 24.5225 27.1053 23.3467 30.4935 21.6671L30.9279 19.1477C27.8872 21.3312 23.4565 22.7589 18.7652 22.9268C9.38262 22.7589 1.99815 17.9719 1.8244 12.0093C1.8244 6.38256 9.38262 1.59564 18.7652 1.59564C24.3253 1.59564 29.5379 3.5272 32.5785 6.6345L32.926 7.13839H35.0979L34.7504 6.6345C31.7098 2.68739 25.5416 0 18.6784 0C8.25323 0 0 5.45877 0 12.0933V12.5132V33.8444C0.347504 40.3109 8.42698 45.6017 18.5915 45.6017C25.2809 45.6017 31.3623 43.0823 34.6635 39.3031Z" fill="white"/>
<path d="M30.5816 54L34.0566 39.6393L23.979 43.8383L30.1472 18.896H18.332L21.3727 6.63477H58.99L55.9494 18.896H43.6998L41.0936 25.6984L54.6462 20.2397L30.5816 54ZM36.7498 36.7L35.0122 45.182L49.4337 24.1028L37.6185 29.1417L42.8311 17.3003H54.6462L56.8181 8.39837H22.6758L20.5039 17.3003H32.3191L26.5853 40.983L36.6629 36.7839L36.7498 36.7Z" fill="white"/>
<path d="M84.011 14.9489C84.011 16.2926 83.5766 17.3843 82.7078 18.1401C81.8391 18.896 80.6228 19.3159 79.059 19.3159C77.4953 19.3159 76.1921 18.812 75.3234 17.8882C74.3677 16.9644 73.9333 15.6207 73.9333 14.1091V11.5896C73.9333 10.078 74.4546 8.81826 75.3234 7.81049C76.279 6.88669 77.4953 6.38281 79.059 6.38281C80.6228 6.38281 81.9259 6.80271 82.7947 7.47456C83.7503 8.23039 84.1847 9.32214 84.0978 10.6658H81.5784C81.5784 9.82603 81.4047 9.23816 80.9703 8.81826C80.5359 8.39835 79.9278 8.23039 79.059 8.23039C78.1903 8.23039 77.669 8.56631 77.2346 9.15418C76.8003 9.74205 76.5396 10.4979 76.5396 11.5056V14.0251C76.5396 14.9489 76.8003 15.7887 77.2346 16.3765C77.669 16.9644 78.364 17.3003 79.1459 17.3003C79.9278 17.3003 80.5359 17.1324 80.8834 16.7125C81.2309 16.2926 81.4916 15.7047 81.4916 14.8649H84.011V14.9489ZM98.4324 13.9411C98.4324 15.4528 97.9111 16.7964 96.9555 17.8042C95.9999 18.812 94.6099 19.3159 93.0461 19.3159C91.4823 19.3159 90.1792 18.812 89.1367 17.8042C88.181 16.7964 87.6598 15.5367 87.6598 13.9411V11.6736C87.6598 10.162 88.181 8.90224 89.1367 7.81049C90.0923 6.80271 91.4823 6.29883 93.0461 6.29883C94.6099 6.29883 95.9999 6.80271 96.9555 7.81049C97.998 8.81826 98.4324 10.078 98.4324 11.6736V13.9411ZM95.8261 11.6736C95.8261 10.6658 95.5655 9.91001 95.0442 9.23816C94.523 8.6503 93.828 8.31437 92.9592 8.31437C92.0904 8.31437 91.3954 8.6503 90.8742 9.23816C90.4398 9.82603 90.0923 10.6658 90.0923 11.6736V13.9411C90.0923 14.9489 90.3529 15.7887 90.8742 16.3765C91.3086 16.9644 92.0904 17.3003 92.9592 17.3003C93.828 17.3003 94.523 16.9644 95.0442 16.3765C95.5655 15.7887 95.8261 14.9489 95.8261 13.9411V11.6736ZM105.209 19.1479H102.602V6.55077H105.209V19.1479ZM120.325 19.1479H117.719L112.506 10.6658V19.1479H109.9V6.55077H112.506L117.719 15.0328V6.55077H120.325V19.1479ZM133.53 8.48233H129.795V19.1479H127.188V8.48233H123.54V6.55077H133.53V8.48233ZM144.39 13.6052H139.525V17.2164H145.259V19.1479H136.918V6.55077H145.259V8.48233H139.525V11.6736H144.39V13.6052ZM151.687 17.2164H157.508V19.1479H148.994V6.55077H151.601V17.2164H151.687ZM168.715 13.6052H163.85V17.2164H169.584V19.1479H161.244V6.55077H169.584V8.48233H163.85V11.6736H168.715V13.6052ZM183.397 17.4683C182.963 17.9722 182.442 18.3921 181.573 18.812C180.791 19.2319 179.748 19.3999 178.445 19.3999C176.881 19.3999 175.578 18.896 174.623 17.9722C173.667 17.0484 173.146 15.7887 173.146 14.277V11.5896C173.146 10.078 173.667 8.81826 174.623 7.89447C175.578 6.97068 176.881 6.46679 178.358 6.46679C179.922 6.46679 181.225 6.88669 182.007 7.55854C182.789 8.23039 183.31 9.23816 183.223 10.4979H180.791C180.791 9.82603 180.617 9.32214 180.183 8.90224C179.748 8.48233 179.227 8.31437 178.445 8.31437C177.663 8.31437 177.055 8.6503 176.534 9.23816C176.1 9.82603 175.839 10.5819 175.839 11.5056V14.193C175.839 15.1168 176.1 15.9566 176.621 16.5445C177.142 17.1324 177.837 17.4683 178.619 17.4683C179.227 17.4683 179.748 17.4683 180.096 17.3003C180.443 17.2164 180.704 17.0484 180.965 16.8804V14.445H178.445V12.6814H183.571V17.6363L183.397 17.4683ZM190.174 14.1091V19.1479H187.567V6.46679H192.085C193.562 6.46679 194.778 6.80271 195.56 7.47456C196.429 8.14641 196.863 9.0702 196.863 10.2459C196.863 10.9178 196.689 11.4217 196.342 11.9256C195.994 12.3455 195.473 12.7654 194.778 13.1013C195.56 13.3532 196.081 13.6892 196.429 14.193C196.776 14.6969 196.95 15.3688 196.95 16.1246V17.0484C196.95 17.0484 196.95 17.8042 197.124 18.1401C197.124 18.5601 197.384 18.812 197.645 18.98V19.1479H194.952C194.691 18.98 194.517 18.644 194.43 18.2241C194.43 17.8042 194.344 17.3843 194.344 16.9644V16.0406C194.344 15.4528 194.17 14.9489 193.822 14.6129C193.475 14.277 192.954 14.1091 192.345 14.1091H190.174ZM190.174 12.1775H192.085C192.78 12.1775 193.388 12.0095 193.735 11.7576C194.083 11.4217 194.257 11.0018 194.257 10.4139C194.257 9.82603 194.083 9.40612 193.735 9.0702C193.388 8.73428 192.867 8.56631 192.172 8.56631H190.26V12.2615L190.174 12.1775ZM207.983 16.4605H203.726L202.857 19.1479H200.077L204.508 6.55077H207.201L211.545 19.1479H208.765L207.896 16.3765L207.983 16.4605ZM204.421 14.445H207.375L205.985 9.99399L204.508 14.445H204.421ZM217.453 14.529V19.0639H214.846V6.55077H219.885C221.362 6.55077 222.578 6.97068 223.447 7.64252C224.316 8.39835 224.75 9.40612 224.75 10.5819C224.75 11.7576 224.316 12.7654 223.447 13.5212C222.578 14.277 221.449 14.6129 219.885 14.6129H217.539L217.453 14.529ZM217.453 12.5974H219.798C220.493 12.5974 221.101 12.4294 221.449 12.0095C221.796 11.5896 221.97 11.0857 221.97 10.5819C221.97 9.99399 221.796 9.49011 221.449 9.0702C221.101 8.6503 220.493 8.48233 219.798 8.48233H217.453V12.5974ZM238.998 19.0639H236.392V13.8571H231.092V19.0639H228.486V6.46679H231.092V11.9256H236.392V6.46679H238.998V19.0639Z" fill="white"/>
<path d="M78.6237 39.7237H76.9731V31.4096H74.0193V30.0659H81.5775V31.4096H78.6237V39.7237ZM89.5701 39.7237H87.9195V35.1887C87.9195 34.6009 87.8326 34.181 87.5719 33.929C87.3113 33.6771 86.9638 33.5091 86.4426 33.5091C85.7476 33.5091 85.3132 33.6771 84.9657 34.097C84.6182 34.5169 84.5313 35.1047 84.4444 36.0285V39.6397H82.8806V29.394H84.4444V31.9975C84.4444 32.4174 84.4444 32.8373 84.4444 33.3411H84.5313C84.5313 33.3411 85.0525 32.7533 85.4869 32.5013C85.9213 32.3334 86.3557 32.1654 86.8769 32.1654C88.7013 32.1654 89.657 33.0892 89.657 34.8528V39.6397L89.5701 39.7237ZM95.1302 39.8077C93.9139 39.8077 93.0451 39.4718 92.3501 38.7999C91.6551 38.1281 91.3945 37.2043 91.3945 36.0285C91.3945 34.8528 91.742 33.929 92.3501 33.2572C92.9583 32.5853 93.827 32.2494 94.8695 32.2494C95.8252 32.2494 96.6939 32.5853 97.2152 33.1732C97.8233 33.7611 98.084 34.5169 98.084 35.6086V36.4484H93.0451C93.0451 37.1203 93.3058 37.7082 93.6533 38.0441C94.0008 38.464 94.6089 38.6319 95.217 38.6319C95.6514 38.6319 96.0858 38.632 96.4333 38.548C96.8677 38.548 97.2152 38.296 97.6496 38.1281V39.3878C97.6496 39.3878 96.8677 39.7237 96.4333 39.8077C96.0858 39.8077 95.5645 39.8917 95.0433 39.8917L95.1302 39.8077ZM94.8695 33.4251C94.3483 33.4251 93.9139 33.5931 93.6533 33.845C93.3926 34.097 93.2189 34.6009 93.132 35.1887H96.5202C96.5202 34.6009 96.3464 34.097 96.0858 33.845C95.8252 33.5091 95.3908 33.4251 94.8695 33.4251ZM107.293 33.5091H105.468V39.6397H103.818V33.5091H102.602V32.7533L103.818 32.3334V31.9135C103.818 31.0737 103.992 30.4018 104.426 29.9819C104.86 29.562 105.468 29.394 106.337 29.394C106.858 29.394 107.467 29.394 107.988 29.646L107.553 30.8217C107.553 30.8217 106.772 30.6538 106.424 30.6538C106.077 30.6538 105.816 30.7377 105.642 30.9897C105.468 31.2416 105.382 31.4936 105.382 31.9135V32.3334H107.206V33.5091H107.293ZM113.895 39.6397L113.635 38.7159C113.635 38.7159 113.114 39.3038 112.679 39.5557C112.245 39.7237 111.81 39.8917 111.289 39.8917C110.333 39.8917 109.725 39.6397 109.204 39.2198C108.77 38.7999 108.509 38.1281 108.509 37.2043V32.4174H110.16V36.9523C110.16 37.5402 110.247 37.8761 110.507 38.212C110.768 38.464 111.115 38.6319 111.637 38.6319C112.332 38.6319 112.766 38.464 113.114 38.0441C113.461 37.6242 113.548 37.0363 113.635 36.1125V32.4174H115.285V39.7237H113.982L113.895 39.6397ZM120.237 38.464C120.237 38.464 121.019 38.464 121.454 38.296V39.4718C121.454 39.4718 121.019 39.6397 120.759 39.6397C120.498 39.6397 120.237 39.6397 119.89 39.6397C118.413 39.6397 117.631 38.8839 117.631 37.3722V33.4251H116.589V32.7533L117.718 32.1654L118.239 30.6538H119.195V32.2494H121.367V33.4251H119.195V37.3722C119.195 37.7921 119.195 38.0441 119.455 38.212C119.542 38.38 119.89 38.464 120.15 38.464H120.237ZM128.23 39.6397L127.969 38.7159C127.969 38.7159 127.448 39.3038 127.014 39.5557C126.579 39.7237 126.145 39.8917 125.624 39.8917C124.668 39.8917 124.06 39.6397 123.539 39.2198C123.104 38.7999 122.844 38.1281 122.844 37.2043V32.4174H124.494V36.9523C124.494 37.5402 124.581 37.8761 124.842 38.212C125.102 38.464 125.45 38.6319 125.971 38.6319C126.666 38.6319 127.101 38.464 127.448 38.0441C127.796 37.6242 127.882 37.0363 127.969 36.1125V32.4174H129.62V39.7237H128.317L128.23 39.6397ZM135.614 32.1654C135.614 32.1654 136.223 32.1654 136.396 32.1654L136.223 33.5931C136.223 33.5931 135.788 33.5931 135.528 33.5931C134.919 33.5931 134.398 33.7611 133.964 34.181C133.529 34.6009 133.356 35.1048 133.356 35.7766V39.5557H131.792V32.2494H133.095L133.269 33.5091C133.529 33.0892 133.877 32.7533 134.224 32.5013C134.572 32.2494 135.006 32.0814 135.528 32.0814L135.614 32.1654ZM140.827 39.7237C139.611 39.7237 138.742 39.3878 138.047 38.7159C137.352 38.0441 137.091 37.1203 137.091 35.9446C137.091 34.7688 137.439 33.845 138.047 33.1732C138.655 32.5013 139.524 32.1654 140.566 32.1654C141.522 32.1654 142.391 32.5013 142.912 33.0892C143.52 33.6771 143.781 34.4329 143.781 35.5247V36.3645H138.742C138.742 37.0363 139.003 37.6242 139.35 37.9601C139.698 38.38 140.306 38.548 140.914 38.548C141.348 38.548 141.783 38.548 142.13 38.464C142.565 38.464 142.912 38.212 143.346 38.0441V39.3038C143.346 39.3038 142.565 39.6397 142.13 39.7237C141.696 39.7237 141.261 39.8077 140.74 39.8077L140.827 39.7237ZM140.566 33.3411C140.045 33.3411 139.611 33.5091 139.35 33.7611C139.003 34.097 138.916 34.5169 138.829 35.1047H142.217C142.217 34.5169 142.043 34.013 141.783 33.7611C141.435 33.4251 141.088 33.3411 140.566 33.3411ZM155.943 35.9446C155.943 37.1203 155.596 38.0441 154.988 38.7159C154.38 39.3878 153.511 39.7237 152.382 39.7237C151.686 39.7237 151.078 39.5557 150.47 39.2198C149.862 38.8839 149.515 38.464 149.254 37.8761C148.993 37.2883 148.82 36.6164 148.82 35.8606C148.82 34.6848 149.167 33.7611 149.775 33.0892C150.383 32.4174 151.252 32.0814 152.468 32.0814C153.511 32.0814 154.38 32.4174 155.075 33.0892C155.683 33.7611 156.03 34.6848 156.03 35.8606L155.943 35.9446ZM150.47 35.9446C150.47 37.6242 151.078 38.464 152.382 38.464C153.685 38.464 154.293 37.6242 154.293 35.9446C154.293 34.2649 153.685 33.4251 152.382 33.4251C151.686 33.4251 151.252 33.6771 150.905 34.097C150.557 34.5169 150.47 35.1048 150.47 35.9446ZM161.59 33.5091H159.766V39.6397H158.115V33.5091H156.899V32.7533L158.115 32.3334V31.9135C158.115 31.0737 158.289 30.4018 158.723 29.9819C159.158 29.562 159.766 29.394 160.635 29.394C161.156 29.394 161.764 29.394 162.285 29.646L161.851 30.8217C161.851 30.8217 161.069 30.6538 160.722 30.6538C160.374 30.6538 160.113 30.7377 159.94 30.9897C159.766 31.1576 159.679 31.4936 159.679 31.9135V32.3334H161.503V33.5091H161.59ZM172.884 39.6397H171.234V35.1047C171.234 34.5169 171.147 34.181 170.886 33.845C170.712 33.5931 170.365 33.4251 169.844 33.4251C169.235 33.4251 168.801 33.5931 168.454 34.013C168.193 34.4329 168.019 35.0208 168.019 35.9446V39.5557H166.455V32.2494H167.759L168.019 33.1732C168.019 33.1732 168.54 32.5853 168.975 32.3334C169.409 32.1654 169.844 32.0814 170.278 32.0814C171.407 32.0814 172.189 32.5013 172.624 33.2572H172.71C172.71 33.2572 173.232 32.5853 173.666 32.4174C174.101 32.2494 174.535 32.0814 175.056 32.0814C176.012 32.0814 176.62 32.3334 177.054 32.7533C177.489 33.1732 177.662 33.845 177.662 34.7688V39.5557H176.099V35.0208C176.099 34.4329 176.012 34.097 175.751 33.7611C175.491 33.5091 175.23 33.3411 174.709 33.3411C174.101 33.3411 173.666 33.5091 173.319 33.929C173.058 34.3489 172.884 34.8528 172.884 35.6926V39.5557H172.797L172.884 39.6397ZM186.611 35.9446C186.611 37.1203 186.263 38.0441 185.655 38.7159C185.047 39.3878 184.178 39.7237 183.049 39.7237C182.354 39.7237 181.746 39.5557 181.137 39.2198C180.616 38.8839 180.182 38.464 179.921 37.8761C179.661 37.2883 179.487 36.6164 179.487 35.8606C179.487 34.6848 179.834 33.7611 180.442 33.0892C181.051 32.4174 181.919 32.0814 183.136 32.0814C184.178 32.0814 185.047 32.4174 185.742 33.0892C186.35 33.7611 186.698 34.6848 186.698 35.8606L186.611 35.9446ZM181.137 35.9446C181.137 37.6242 181.746 38.464 183.049 38.464C184.352 38.464 184.96 37.6242 184.96 35.9446C184.96 34.2649 184.352 33.4251 183.049 33.4251C182.354 33.4251 181.919 33.6771 181.572 34.097C181.224 34.5169 181.137 35.1048 181.137 35.9446ZM195.125 39.6397H193.474V35.1047C193.474 34.5169 193.387 34.097 193.126 33.845C192.866 33.5931 192.518 33.4251 191.997 33.4251C191.302 33.4251 190.781 33.5931 190.52 34.013C190.259 34.4329 190.086 35.0208 190.086 35.9446V39.5557H188.522V32.2494H189.825L190.086 33.1732C190.086 33.1732 190.607 32.5853 191.041 32.3334C191.476 32.1654 191.91 32.0814 192.431 32.0814C194.256 32.0814 195.125 33.0052 195.125 34.7688V39.4718V39.6397ZM200.685 39.7237C199.468 39.7237 198.6 39.3878 197.905 38.7159C197.21 38.0441 196.949 37.1203 196.949 35.9446C196.949 34.7688 197.296 33.845 197.905 33.1732C198.513 32.5013 199.381 32.1654 200.424 32.1654C201.38 32.1654 202.248 32.5013 202.77 33.0892C203.378 33.6771 203.638 34.4329 203.638 35.5247V36.3645H198.6C198.6 37.0363 198.86 37.6242 199.208 37.9601C199.555 38.38 200.163 38.548 200.771 38.548C201.206 38.548 201.64 38.548 201.988 38.464C202.335 38.464 202.77 38.212 203.204 38.0441V39.3038C203.204 39.3038 202.422 39.6397 201.988 39.7237C201.553 39.7237 201.119 39.8077 200.598 39.8077L200.685 39.7237ZM200.337 33.3411C199.816 33.3411 199.381 33.5091 199.121 33.7611C198.773 34.097 198.686 34.5169 198.6 35.1047H201.988C201.988 34.5169 201.814 34.013 201.553 33.7611C201.293 33.4251 200.858 33.3411 200.337 33.3411ZM203.986 32.3334H205.723L207.287 36.4484C207.548 37.0363 207.722 37.6242 207.722 38.1281C207.722 38.1281 207.808 37.6242 207.982 37.2043C208.069 36.8683 208.677 35.1887 209.72 32.2494H211.457L208.243 40.4795C207.635 41.9912 206.679 42.747 205.289 42.747C204.942 42.747 204.594 42.747 204.247 42.663V41.4033C204.247 41.4033 204.768 41.4033 205.115 41.4033C205.897 41.4033 206.418 40.9834 206.766 40.0596L207.027 39.3878L203.899 32.0814L203.986 32.3334Z" fill="white"/>
</svg>
