<svg width="279" height="66" viewBox="0 0 279 66" fill="none" xmlns="http://www.w3.org/2000/svg">
<path fill-rule="evenodd" clip-rule="evenodd" d="M82.4881 38.9009C83.3659 38.9009 84.0189 38.6601 84.4498 38.1784C84.8753 37.6967 85.0867 36.9901 85.0867 36.0562H91.0814L91.1215 36.1739C91.1751 38.4701 90.3802 40.3461 88.7477 41.7939C87.1072 43.239 85.0225 43.9643 82.4855 43.9643C79.3062 43.9643 76.8494 42.9714 75.1259 40.983C73.3971 38.9973 72.5327 36.4201 72.5327 33.2488V32.8019C72.5327 29.6467 73.3944 27.0749 75.1152 25.0811C76.8334 23.0873 79.274 22.0891 82.4293 22.0891C85.0948 22.0891 87.2196 22.8384 88.8147 24.3291C90.4043 25.8224 91.1751 27.8563 91.1215 30.4254L91.0841 30.5432H85.0867C85.0867 29.5423 84.8673 28.7287 84.4284 28.0998C83.9868 27.4683 83.3231 27.1551 82.4293 27.1551C81.1875 27.1551 80.3178 27.669 79.82 28.694C79.3222 29.7189 79.0706 31.0891 79.0706 32.8019V33.2515C79.0706 35.0178 79.3222 36.3987 79.82 37.3996C80.3178 38.4005 81.2089 38.9009 82.4881 38.9009ZM105.675 28.2845L103.287 28.2658C102.538 28.2658 101.923 28.3915 101.444 28.6458C100.981 28.8824 100.607 29.2615 100.376 29.727V43.5548H93.8191V22.4825H99.9904L100.223 25.5789C100.662 24.4763 101.243 23.6199 101.968 23.0097C102.676 22.4057 103.58 22.0803 104.511 22.0945C105.119 22.0984 105.725 22.1766 106.314 22.3273L105.675 28.2872V28.2845ZM118.127 34.2631L118.148 34.421H118.266L121.737 22.4798H128.725L120.362 46.6913C119.714 48.2489 118.879 49.5334 117.859 50.545C116.834 51.562 115.21 52.0678 112.989 52.0678C112.416 52.0678 111.953 52.0303 111.589 51.9607C111.018 51.8411 110.449 51.7081 109.884 51.562L110.679 46.8867L111.086 46.9723C111.2 46.995 111.317 47.0057 111.434 47.0044C112.47 47.0044 113.227 46.8492 113.706 46.5415C114.182 46.2364 114.541 45.7761 114.771 45.1606L115.296 43.7903L108.04 22.4798H115.007L118.127 34.2631ZM143.334 33.0561C143.334 31.2765 143.074 29.8501 142.558 28.7742C142.041 27.6931 141.212 27.1551 140.074 27.1551C139.336 27.1551 138.712 27.289 138.201 27.5646C137.693 27.8376 137.286 28.2336 136.989 28.7528V37.5575C137.302 38.0124 137.711 38.347 138.22 38.5691C138.731 38.7912 139.365 38.9009 140.112 38.9009C141.263 38.9009 142.09 38.4219 142.587 37.4692C143.085 36.5138 143.334 35.1784 143.334 33.4656V33.0561ZM149.872 33.4656C149.872 36.6342 149.16 39.1766 147.739 41.0927C146.315 43.0062 144.311 43.9643 141.723 43.9643C140.794 43.9826 139.874 43.7828 139.036 43.3809C138.235 42.9769 137.536 42.3979 136.989 41.6869V51.6583H130.432V22.4798H136.563L136.796 24.7974C137.39 23.9277 138.089 23.2586 138.892 22.7903C139.694 22.3246 140.626 22.0891 141.685 22.0891C144.287 22.0891 146.299 23.0954 147.731 25.1105C149.157 27.123 149.872 29.7725 149.872 33.0588V33.4656ZM160.526 17.2399V22.4825H164.077V27.0401H160.526V36.7011C160.526 37.4558 160.678 37.9964 160.981 38.3282C161.138 38.4952 161.329 38.6261 161.542 38.7121C161.754 38.798 161.983 38.8369 162.212 38.826C162.627 38.826 162.953 38.8126 163.194 38.7859C163.432 38.7591 163.74 38.7056 164.115 38.6306L164.58 43.5013C163.934 43.6557 163.28 43.7755 162.621 43.8599C162.038 43.9322 161.353 43.967 160.563 43.967C158.404 43.967 156.768 43.3916 155.655 42.2328C154.542 41.0794 153.985 39.2488 153.985 36.7413V27.0374H151.036V22.4825H153.985V17.2372L160.526 17.2399ZM172.266 33.2328C172.266 34.9991 172.539 36.3853 173.091 37.3916C173.639 38.3951 174.573 38.9009 175.893 38.9009C177.174 38.9009 178.092 38.3925 178.649 37.3809C179.203 36.3693 179.484 34.9857 179.484 33.2328V32.8233C179.484 31.1106 179.203 29.735 178.649 28.702C178.092 27.6716 177.161 27.1551 175.855 27.1551C174.562 27.1551 173.639 27.6743 173.091 28.7127C172.539 29.7537 172.264 31.1213 172.264 32.8233L172.266 33.2328ZM165.707 32.8233C165.707 29.6547 166.598 27.0749 168.383 25.0811C170.168 23.0873 172.66 22.0891 175.855 22.0891C179.064 22.0891 181.561 23.0873 183.346 25.0811C185.128 27.0749 186.022 29.6547 186.022 32.8233V33.2328C186.022 36.4121 185.128 38.9973 183.346 40.9857C181.561 42.9714 179.075 43.9643 175.893 43.9643C172.673 43.9643 170.168 42.9714 168.383 40.9857C166.598 38.9973 165.707 36.4121 165.707 33.2328V32.8233ZM194.947 22.4798L195.201 25.4397C195.884 24.388 196.732 23.5664 197.744 22.9776C198.766 22.3815 199.932 22.0744 201.116 22.0891C203.174 22.0891 204.782 22.7582 205.938 24.0963C207.097 25.4344 207.678 27.5646 207.678 30.487V43.5548H201.116V30.4683C201.116 29.2586 200.869 28.4049 200.372 27.9045C199.871 27.404 199.138 27.1551 198.169 27.1551C197.634 27.1379 197.101 27.241 196.61 27.4568C196.12 27.6726 195.684 27.9957 195.335 28.4022V43.5548H188.797V22.4798H194.947ZM220.365 27.1551C219.421 27.1551 218.714 27.4923 218.241 28.1667C217.767 28.8438 217.481 29.7457 217.376 30.875L217.435 30.9714H223.082V30.4656C223.082 29.4005 222.862 28.5842 222.423 28.0115C221.982 27.4415 221.299 27.1551 220.365 27.1551ZM220.831 43.9616C217.74 43.9616 215.273 42.9902 213.429 41.0446C211.585 39.0963 210.664 36.6556 210.664 33.7198V32.9785C210.664 29.7698 211.499 27.1525 213.177 25.1186C214.853 23.0873 217.248 22.0784 220.365 22.0918C223.21 22.0918 225.442 22.9482 227.059 24.6609C228.678 26.3764 229.486 28.702 229.486 31.6351V35.082H217.497L217.456 35.1998C217.598 36.2783 218.037 37.1641 218.773 37.8599C219.512 38.553 220.494 38.8983 221.722 38.8983C222.964 38.8983 223.957 38.8019 224.701 38.6066C225.445 38.4139 226.387 38.0767 227.524 37.595L229.076 41.6066C228.161 42.2836 226.973 42.8456 225.517 43.2926C223.998 43.7486 222.417 43.9741 220.831 43.9616ZM250.285 34.694H250.403L252.672 22.4798H258.726L253.799 43.5575H248.249L244.831 32.3764H244.716L241.283 43.5575H235.754L230.803 22.4798H236.859L239.166 34.7903H239.283L242.698 22.4798H246.833L250.285 34.694ZM272.019 37.6351C272.019 37.1159 271.724 36.6503 271.135 36.2435C270.547 35.8314 269.476 35.4674 267.924 35.1409C265.478 34.6592 263.637 33.9125 262.392 32.9009C261.151 31.8866 260.532 30.5057 260.532 28.7528C260.532 26.8956 261.309 25.322 262.861 24.0294C264.413 22.7368 266.514 22.0918 269.166 22.0918C271.96 22.0918 274.184 22.718 275.84 23.9705C277.497 25.2229 278.284 26.8447 278.209 28.8304L278.169 28.9482H271.805C271.805 28.1186 271.593 27.487 271.173 27.0561C270.753 26.6279 270.076 26.4138 269.147 26.4138C268.522 26.3934 267.91 26.5943 267.418 26.9812C267.197 27.1493 267.018 27.3673 266.897 27.6174C266.775 27.8676 266.715 28.1429 266.72 28.421C266.72 28.9803 266.987 29.454 267.525 29.842C268.061 30.2328 269.147 30.5833 270.777 30.8938C273.338 31.4023 275.235 32.1569 276.472 33.1632C277.706 34.1694 278.324 35.5958 278.324 37.4397C278.324 39.3372 277.486 40.8974 275.811 42.1231C274.135 43.3541 271.92 43.9643 269.166 43.9643C266.308 43.9643 264.046 43.239 262.384 41.7832C260.722 40.3274 259.93 38.7056 260.005 36.9125L260.045 36.7975H265.987C266.011 37.7984 266.31 38.5182 266.886 38.9598C267.461 39.4014 268.277 39.6208 269.34 39.6208C270.218 39.6208 270.884 39.4496 271.339 39.1043C271.791 38.7618 272.019 38.2694 272.019 37.6324" fill="#151011"/>
<mask id="mask0_64_741" style="mask-type:luminance" maskUnits="userSpaceOnUse" x="31" y="33" width="33" height="17">
<path d="M31.9912 49.0571H63.9824L47.9868 33L31.9912 49.0571Z" fill="white"/>
</mask>
<g mask="url(#mask0_64_741)">
<path fill-rule="evenodd" clip-rule="evenodd" d="M31.9912 49.0571H63.9824L47.9868 33L31.9912 49.0571Z" fill="url(#paint0_linear_64_741)"/>
</g>
<mask id="mask1_64_741" style="mask-type:luminance" maskUnits="userSpaceOnUse" x="0" y="16" width="16" height="34">
<path d="M0 49.0572L15.9956 33L0 16.9429V49.0572Z" fill="white"/>
</mask>
<g mask="url(#mask1_64_741)">
<path fill-rule="evenodd" clip-rule="evenodd" d="M0 49.0572L15.9956 33L0 16.9429V49.0572Z" fill="url(#paint1_linear_64_741)"/>
</g>
<mask id="mask2_64_741" style="mask-type:luminance" maskUnits="userSpaceOnUse" x="31" y="16" width="33" height="17">
<path d="M31.9912 16.9429L47.9868 33L63.9824 16.9429H31.9912Z" fill="white"/>
</mask>
<g mask="url(#mask2_64_741)">
<path fill-rule="evenodd" clip-rule="evenodd" d="M31.9912 16.9429L47.9868 33L63.9824 16.9429H31.9912Z" fill="url(#paint2_linear_64_741)"/>
</g>
<mask id="mask3_64_741" style="mask-type:luminance" maskUnits="userSpaceOnUse" x="15" y="0" width="33" height="17">
<path d="M15.9956 0.885742L31.9912 16.9429L47.9868 0.885742H15.9956Z" fill="white"/>
</mask>
<g mask="url(#mask3_64_741)">
<path fill-rule="evenodd" clip-rule="evenodd" d="M15.9956 0.885742L31.9912 16.9429L47.9868 0.885742H15.9956Z" fill="url(#paint3_linear_64_741)"/>
</g>
<mask id="mask4_64_741" style="mask-type:luminance" maskUnits="userSpaceOnUse" x="31" y="49" width="33" height="17">
<path d="M31.9912 49.0571L47.9868 65.1143L63.9824 49.0571H31.9912Z" fill="white"/>
</mask>
<g mask="url(#mask4_64_741)">
<path fill-rule="evenodd" clip-rule="evenodd" d="M31.9912 49.0571L47.9868 65.1143L63.9824 49.0571H31.9912Z" fill="url(#paint4_linear_64_741)"/>
</g>
<mask id="mask5_64_741" style="mask-type:luminance" maskUnits="userSpaceOnUse" x="0" y="49" width="32" height="17">
<path d="M0 49.0571L15.9956 65.1143L31.9912 49.0571H0Z" fill="white"/>
</mask>
<g mask="url(#mask5_64_741)">
<path fill-rule="evenodd" clip-rule="evenodd" d="M0 49.0571L15.9956 65.1143L31.9912 49.0571H0Z" fill="url(#paint5_linear_64_741)"/>
</g>
<mask id="mask6_64_741" style="mask-type:luminance" maskUnits="userSpaceOnUse" x="31" y="0" width="33" height="17">
<path d="M47.9868 0.885742L31.9912 16.9429H63.9824L47.9868 0.885742Z" fill="white"/>
</mask>
<g mask="url(#mask6_64_741)">
<path fill-rule="evenodd" clip-rule="evenodd" d="M47.9868 0.885742L31.9912 16.9429H63.9824L47.9868 0.885742Z" fill="url(#paint6_linear_64_741)"/>
</g>
<mask id="mask7_64_741" style="mask-type:luminance" maskUnits="userSpaceOnUse" x="0" y="0" width="32" height="17">
<path d="M15.9956 0.885742L0 16.9429H31.9912L15.9956 0.885742Z" fill="white"/>
</mask>
<g mask="url(#mask7_64_741)">
<path fill-rule="evenodd" clip-rule="evenodd" d="M15.9956 0.885742L0 16.9429H31.9912L15.9956 0.885742Z" fill="url(#paint7_linear_64_741)"/>
</g>
<mask id="mask8_64_741" style="mask-type:luminance" maskUnits="userSpaceOnUse" x="15" y="49" width="33" height="17">
<path d="M15.9956 65.1143H47.9868L31.9912 49.0571L15.9956 65.1143Z" fill="white"/>
</mask>
<g mask="url(#mask8_64_741)">
<path fill-rule="evenodd" clip-rule="evenodd" d="M15.9956 65.1143H47.9868L31.9912 49.0571L15.9956 65.1143Z" fill="url(#paint8_linear_64_741)"/>
</g>
<mask id="mask9_64_741" style="mask-type:luminance" maskUnits="userSpaceOnUse" x="0" y="33" width="32" height="17">
<path d="M0 49.0571H31.9912L15.9956 33L0 49.0571Z" fill="white"/>
</mask>
<g mask="url(#mask9_64_741)">
<path fill-rule="evenodd" clip-rule="evenodd" d="M0 49.0571H31.9912L15.9956 33L0 49.0571Z" fill="url(#paint9_linear_64_741)"/>
</g>
<mask id="mask10_64_741" style="mask-type:luminance" maskUnits="userSpaceOnUse" x="0" y="16" width="32" height="17">
<path d="M0 16.9429L15.9956 33L31.9912 16.9429H0Z" fill="white"/>
</mask>
<g mask="url(#mask10_64_741)">
<path fill-rule="evenodd" clip-rule="evenodd" d="M0 16.9429L15.9956 33L31.9912 16.9429H0Z" fill="url(#paint10_linear_64_741)"/>
</g>
<defs>
<linearGradient id="paint0_linear_64_741" x1="31.9912" y1="835.857" x2="3231.11" y2="835.857" gradientUnits="userSpaceOnUse">
<stop stop-color="#120812"/>
<stop offset="1" stop-color="#0D051A"/>
</linearGradient>
<linearGradient id="paint1_linear_64_741" x1="0" y1="1622.66" x2="1599.56" y2="1622.66" gradientUnits="userSpaceOnUse">
<stop stop-color="#EF4B95"/>
<stop offset="1" stop-color="#F64B7E"/>
</linearGradient>
<linearGradient id="paint2_linear_64_741" x1="31.9912" y1="819.8" x2="3231.11" y2="819.8" gradientUnits="userSpaceOnUse">
<stop stop-color="#120812"/>
<stop offset="1" stop-color="#0D051A"/>
</linearGradient>
<linearGradient id="paint3_linear_64_741" x1="15.9956" y1="803.743" x2="3215.11" y2="803.743" gradientUnits="userSpaceOnUse">
<stop stop-color="#87002D"/>
<stop offset="1" stop-color="#3B016E"/>
</linearGradient>
<linearGradient id="paint4_linear_64_741" x1="31.9912" y1="851.914" x2="3231.11" y2="851.914" gradientUnits="userSpaceOnUse">
<stop stop-color="#2B002D"/>
<stop offset="1" stop-color="#14004F"/>
</linearGradient>
<linearGradient id="paint5_linear_64_741" x1="0" y1="851.898" x2="3199.12" y2="851.898" gradientUnits="userSpaceOnUse">
<stop stop-color="#E60015"/>
<stop offset="1" stop-color="#8E0162"/>
</linearGradient>
<linearGradient id="paint6_linear_64_741" x1="31.9912" y1="803.759" x2="3231.11" y2="803.759" gradientUnits="userSpaceOnUse">
<stop stop-color="#2B002D"/>
<stop offset="1" stop-color="#14004F"/>
</linearGradient>
<linearGradient id="paint7_linear_64_741" x1="0" y1="803.743" x2="3199.12" y2="803.743" gradientUnits="userSpaceOnUse">
<stop stop-color="#E60015"/>
<stop offset="1" stop-color="#8E0162"/>
</linearGradient>
<linearGradient id="paint8_linear_64_741" x1="15.9956" y1="851.914" x2="3215.11" y2="851.914" gradientUnits="userSpaceOnUse">
<stop stop-color="#87002D"/>
<stop offset="1" stop-color="#3B016E"/>
</linearGradient>
<linearGradient id="paint9_linear_64_741" x1="0" y1="835.857" x2="3199.12" y2="835.857" gradientUnits="userSpaceOnUse">
<stop stop-color="#F61749"/>
<stop offset="1" stop-color="#B81789"/>
</linearGradient>
<linearGradient id="paint10_linear_64_741" x1="0" y1="819.8" x2="3199.12" y2="819.8" gradientUnits="userSpaceOnUse">
<stop stop-color="#F61749"/>
<stop offset="1" stop-color="#B81789"/>
</linearGradient>
</defs>
</svg>
