<svg width="121" height="31" viewBox="0 0 121 31" fill="none" xmlns="http://www.w3.org/2000/svg">
<path d="M21.3262 15.4248L14.4268 22.9248H28.2256L21.3262 15.4248Z" fill="white"/>
<path d="M21.3262 15.4248L28.2256 7.92481H14.4268L21.3262 15.4248Z" fill="white"/>
<path d="M7.52945 15.4248L0.630005 7.92481V22.9248L7.52945 15.4248Z" fill="white"/>
<path d="M14.4311 7.9248L21.3305 0.424806H7.53162L14.4311 7.9248Z" fill="white"/>
<path d="M21.3262 30.4248L28.2256 22.9248H14.4268L21.3262 30.4248Z" fill="white"/>
<path d="M7.52945 30.4248L14.4289 22.9248H0.630005L7.52945 30.4248Z" fill="white"/>
<path d="M21.3262 0.424806L14.4268 7.9248H28.2256L21.3262 0.424806Z" fill="white"/>
<path d="M0.630005 7.9248H14.4289L7.52945 0.424806L0.630005 7.9248Z" fill="white"/>
<path d="M14.4311 22.9248L7.53162 30.4248H21.3305L14.4311 22.9248Z" fill="white"/>
<path d="M7.52945 15.4248L0.630005 22.9248H14.4289L7.52945 15.4248Z" fill="white"/>
<path d="M14.4289 7.92481H0.630005L7.52945 15.4248L14.4289 7.92481Z" fill="white"/>
<path d="M36.2254 18.1698C36.6049 18.1698 36.8877 18.0573 37.074 17.8323C37.2534 17.6073 37.35 17.2773 37.35 16.8423H39.9304L39.9511 16.8948C39.9764 17.3888 39.8969 17.8824 39.7186 18.3376C39.5404 18.7928 39.2682 19.1973 38.9231 19.5198C38.174 20.2108 37.2141 20.572 36.2323 20.5323C34.8524 20.5323 33.7968 20.0673 33.0585 19.1373C32.2844 18.1284 31.8835 16.8424 31.9339 15.5298V15.3198C31.9339 13.8498 32.3065 12.6498 33.0516 11.7198C33.7899 10.7898 34.8455 10.3248 36.2047 10.3248C37.35 10.3248 38.2676 10.6698 38.9507 11.3673C39.2992 11.7338 39.5694 12.179 39.7423 12.6714C39.9152 13.1639 39.9864 13.6916 39.9511 14.2173L39.9304 14.2698H37.35C37.3657 13.8638 37.2644 13.4627 37.0602 13.1223C36.8739 12.8298 36.5842 12.6873 36.2047 12.6873C35.6665 12.6873 35.294 12.9273 35.0801 13.3998C34.8418 14.0056 34.7311 14.6616 34.7558 15.3198V15.5298C34.7558 16.3548 34.8593 16.9998 35.0801 17.4648C35.2871 17.9298 35.6734 18.1698 36.2254 18.1698ZM46.2227 13.2123L45.1878 13.2048C44.8704 13.2048 44.6013 13.2648 44.3943 13.3773C44.1873 13.4973 44.0356 13.6623 43.939 13.8873V20.3373H41.1102V10.5048H43.7734L43.87 11.9448C44.0284 11.4831 44.2891 11.071 44.6289 10.7448C44.934 10.4669 45.321 10.3178 45.719 10.3248C45.9819 10.3238 46.2439 10.3591 46.4987 10.4298L46.2227 13.2123ZM51.5904 16.0023V16.0773H51.6456L53.1428 10.5048H56.151L52.5495 21.7998C52.2735 22.5273 51.9078 23.1273 51.4732 23.5998C51.0316 24.0723 50.3278 24.3123 49.3688 24.3123C49.1273 24.3123 48.9273 24.2973 48.7686 24.2598C48.6168 24.2298 48.3684 24.1698 48.0372 24.0798L48.3822 21.8898L48.5547 21.9348L48.6996 21.9498C49.148 21.9498 49.4723 21.8748 49.6793 21.7323C49.8863 21.5898 50.0381 21.3723 50.1416 21.0873L50.3692 20.4498L47.2369 10.5048H50.2382L51.5904 16.0023ZM62.4571 15.4398C62.4571 14.6148 62.3398 13.9398 62.1121 13.4373C61.8913 12.9348 61.5394 12.6873 61.0496 12.6873C60.7253 12.6873 60.4562 12.7473 60.2423 12.8748C60.0216 13.0023 59.8422 13.1898 59.718 13.4298V17.5398C59.856 17.7498 60.0285 17.9148 60.2493 18.0123C60.5086 18.1212 60.7855 18.1723 61.0634 18.1623C61.5601 18.1623 61.912 17.9373 62.1259 17.4948C62.3713 16.91 62.4826 16.2692 62.4502 15.6273V15.4398H62.4571ZM65.272 15.6273C65.272 17.1123 64.9616 18.2973 64.3475 19.1898C64.0509 19.6275 63.6597 19.9789 63.2085 20.2131C62.7572 20.4472 62.2598 20.5569 61.7602 20.5323C61.3664 20.5441 60.9757 20.4537 60.6206 20.2684C60.2654 20.0832 59.956 19.8086 59.718 19.4673V24.1173H56.8892V10.5048H59.5317L59.6352 11.5848C59.8511 11.1903 60.16 10.8655 60.5299 10.644C60.8998 10.4225 61.3174 10.3123 61.7395 10.3248C62.8641 10.3248 63.7266 10.7898 64.3475 11.7273C65.005 12.8294 65.3283 14.1277 65.272 15.4398V15.6273ZM69.8602 8.05981V10.5048H71.3919V12.6273H69.8602V17.1423C69.8602 17.4873 69.9292 17.7423 70.0534 17.8923C70.1208 17.9715 70.2032 18.034 70.2949 18.0754C70.3866 18.1168 70.4854 18.1362 70.5846 18.1323C70.8627 18.1325 71.14 18.1023 71.4126 18.0423L71.6057 20.3148C71.0385 20.463 70.4573 20.5386 69.874 20.5398C68.9426 20.5323 68.2388 20.2623 67.7627 19.7148C67.2798 19.1823 67.0383 18.3273 67.0383 17.1648V12.6273H65.7688V10.5048H67.0383V8.05981H69.8602ZM74.9175 15.5223C74.9175 16.3473 75.0348 16.9923 75.2762 17.4648C75.5108 17.9298 75.911 18.1623 76.4836 18.1623C77.0356 18.1623 77.4289 17.9298 77.6703 17.4573C77.9118 16.9848 78.0291 16.3323 78.0291 15.5223V15.3273C78.0559 14.665 77.9327 14.0058 77.6703 13.4073C77.4289 12.9273 77.0287 12.6873 76.4629 12.6873C75.911 12.6873 75.5108 12.9273 75.2762 13.4148C75.0348 13.8948 74.9175 14.5398 74.9175 15.3273V15.5223ZM72.0887 15.3273C72.0375 14.0081 72.4522 12.7175 73.2478 11.7198C74.0136 10.7898 75.09 10.3173 76.4698 10.3173C77.8497 10.3173 78.926 10.7898 79.6919 11.7198C80.4856 12.7187 80.9 14.0084 80.851 15.3273V15.5223C80.851 17.0073 80.4646 18.2148 79.6919 19.1373C78.926 20.0673 77.8566 20.5323 76.4836 20.5323C75.0969 20.5323 74.0136 20.0673 73.2409 19.1373C72.4499 18.1347 72.0403 16.8418 72.0956 15.5223V15.3273H72.0887ZM84.694 10.5048L84.8044 11.8848C85.1011 11.3973 85.4667 11.0073 85.9014 10.7373C86.3415 10.4608 86.842 10.3183 87.3503 10.3248C88.2403 10.3248 88.9371 10.6323 89.4339 11.2548C89.9307 11.8848 90.179 12.8748 90.179 14.2398V20.3373H87.3503V14.2323C87.3503 13.6698 87.2468 13.2648 87.0329 13.0323C86.819 12.8073 86.5016 12.6873 86.0808 12.6873C85.8499 12.6794 85.6204 12.7279 85.4091 12.8291C85.1978 12.9304 85.01 13.0818 84.8596 13.2723V20.3373H82.0515V10.5048H84.7009H84.694ZM95.6503 12.6873C95.2432 12.6873 94.9397 12.8373 94.7327 13.1598C94.5257 13.4748 94.4084 13.8948 94.3601 14.4198L94.3877 14.4648H96.8232V14.2323C96.8232 13.7298 96.7266 13.3548 96.5403 13.0848C96.3471 12.8148 96.0574 12.6873 95.6503 12.6873ZM95.8573 20.5323C94.5188 20.5323 93.4563 20.0823 92.6628 19.1673C92.2664 18.7109 91.9568 18.1738 91.7519 17.5868C91.5471 16.9999 91.451 16.3748 91.4692 15.7473V15.4023C91.4692 13.9023 91.828 12.6798 92.5524 11.7348C93.2769 10.7898 94.3049 10.3098 95.6503 10.3248C96.8784 10.3248 97.8374 10.7223 98.5343 11.5248C99.262 12.416 99.6386 13.5822 99.583 14.7723V16.3848H94.4084L94.3946 16.4373C94.4636 16.9398 94.643 17.3598 94.9673 17.6823C95.2846 18.0048 95.7055 18.1698 96.2367 18.1698C97.1031 18.1911 97.961 17.9799 98.7343 17.5548L99.4036 19.4298C98.937 19.7832 98.4193 20.0494 97.8719 20.2173C97.2441 20.4273 96.5679 20.5323 95.8504 20.5323M108.545 16.2048H108.594L109.573 10.5048H112.181L110.056 20.3373H107.669L106.193 15.1248H106.144L104.668 20.3373H102.281L100.149 10.5048H102.757L103.75 16.2498H103.805L105.275 10.5048H107.055L108.545 16.2048ZM117.908 17.5773C117.908 17.3373 117.784 17.1198 117.528 16.9248C117.1 16.6666 116.633 16.4938 116.149 16.4148C115.287 16.278 114.468 15.9178 113.761 15.3648C113.498 15.1324 113.289 14.8364 113.15 14.5005C113.011 14.1645 112.946 13.7978 112.961 13.4298C112.961 13.0034 113.051 12.5827 113.224 12.2003C113.398 11.8179 113.65 11.4841 113.961 11.2248C114.631 10.6248 115.541 10.3248 116.68 10.3248C117.887 10.3248 118.846 10.6173 119.557 11.2023C119.891 11.4533 120.161 11.7933 120.339 12.1899C120.518 12.5865 120.6 13.0263 120.578 13.4673L120.564 13.5198H117.818C117.818 13.1373 117.729 12.8448 117.542 12.6423C117.363 12.4398 117.073 12.3423 116.673 12.3423C116.376 12.3423 116.128 12.4248 115.928 12.6048C115.832 12.6844 115.756 12.7879 115.704 12.9064C115.653 13.0249 115.629 13.1551 115.634 13.2859C115.638 13.4168 115.672 13.5444 115.732 13.6582C115.791 13.772 115.875 13.8686 115.976 13.9398C116.411 14.1966 116.886 14.362 117.377 14.4273C118.261 14.5664 119.103 14.9314 119.833 15.4923C120.099 15.7347 120.309 16.0413 120.447 16.3877C120.585 16.734 120.646 17.1106 120.626 17.4873C120.626 18.3723 120.268 19.0998 119.543 19.6698C118.698 20.283 117.695 20.5853 116.68 20.5323C115.452 20.5323 114.472 20.1873 113.761 19.5123C113.044 18.8373 112.699 18.0723 112.733 17.2398L112.754 17.1873H115.307C115.321 17.6523 115.445 17.9898 115.7 18.1923C115.948 18.4023 116.3 18.4998 116.756 18.4998C117.135 18.4998 117.425 18.4248 117.618 18.2598C117.811 18.1023 117.908 17.8698 117.908 17.5773Z" fill="white"/>
</svg>
