<svg width="98" height="24" viewBox="0 0 98 24" fill="none" xmlns="http://www.w3.org/2000/svg">
<g clip-path="url(#clip0_127_11)">
<path d="M0.211042 3.03491C4.7435 3.0539 9.27596 3.09399 13.8063 3.07078C14.6229 3.06656 14.9985 3.25647 15.0998 4.11105C15.2243 5.15555 15.4965 6.18105 15.5471 7.31205C14.2368 5.87508 13.2598 4.0583 11.0949 3.92326C9.56926 3.8283 8.03312 3.90427 6.4379 3.90427V12.4944C7.97193 12.3425 9.51018 12.3108 10.9788 11.9774C11.4852 11.8614 11.8693 11.0216 12.2153 10.4561C12.4073 10.1396 12.4073 9.70489 12.4938 9.32507L12.7892 9.38415V16.3158L12.5192 16.3727C12.4242 16.0351 12.306 15.6996 12.2385 15.3557C12.0423 14.3428 11.4557 13.6908 10.4344 13.5663C9.15146 13.4102 7.85798 13.3532 6.37038 13.2372C6.37038 13.982 6.35772 14.5939 6.37249 15.2059C6.41258 16.9256 6.40625 18.6474 6.52441 20.3629C6.63203 21.9244 7.09624 22.3464 8.64293 22.6165C8.97211 22.6735 9.30128 22.7241 9.63045 22.7768L9.61779 23.0723L0.204712 23.2938V22.6608C2.24727 22.6355 2.7558 22.1713 2.91406 20.1793C2.93305 19.9346 2.93094 19.6877 2.93094 19.4429C2.93094 15.1995 2.94149 10.9562 2.9225 6.71279C2.90984 4.26509 2.59966 3.92115 0.204712 3.45904V3.03702L0.211042 3.03491Z" fill="white"/>
<path d="M92.1727 9.20908C91.8625 6.87111 93.1285 4.21662 90.0288 2.82397C91.6198 2.47369 93.2024 2.07278 94.806 1.80058C95.5256 1.67819 95.3673 2.36186 95.3694 2.77966C95.38 6.04818 95.3758 9.31669 95.3758 12.5852C95.3758 15.1152 95.3758 17.6452 95.3821 20.1752C95.3842 21.4244 95.4686 22.625 97.1293 22.7685C97.1841 22.7727 97.2242 22.931 97.3445 23.1525H92.3963C92.3077 22.7199 92.198 22.1903 92.0629 21.5341C91.7338 21.7873 91.4658 21.9856 91.2062 22.1903C88.5792 24.2687 84.8254 23.6062 83.0613 20.7555C80.409 16.4657 82.8588 10.3253 87.7563 9.25128C89.092 8.95798 90.5458 9.20697 92.1748 9.20697L92.1727 9.20908ZM92.1241 16.9763H92.1157C92.1157 15.8854 92.1262 14.7966 92.1094 13.7057C92.1051 13.3554 92.0418 13.0051 91.9933 12.6591C91.7654 11.0512 90.8813 9.99403 89.611 9.80623C87.9187 9.55513 86.5029 10.1755 85.8867 11.7159C84.7536 14.556 84.9119 17.3772 86.6189 19.9684C87.6381 21.5151 89.7587 22.0405 91.2991 21.3167C91.854 21.0551 92.1853 20.7301 92.141 20.0359C92.0777 19.021 92.1241 17.9976 92.1241 16.9784V16.9763Z" fill="white"/>
<path d="M40.6803 2.81962C42.1468 2.48412 43.6133 2.14861 45.0798 1.81522C45.8669 1.63586 45.8521 2.16972 45.8521 2.6888C45.8521 5.00778 45.8521 7.32887 45.8521 9.64785C45.8521 9.98335 45.8521 10.321 45.8521 10.61C46.9494 10.0762 47.9179 9.40941 48.9898 9.12033C51.4839 8.44721 53.9105 9.63308 55.088 11.9056C56.909 15.4126 55.9721 22.2324 49.7431 23.1693C48.3019 23.3866 46.7468 23.0785 45.2824 22.8021C44.4721 22.6502 43.8286 22.4497 43.2736 23.2241C43.1723 23.3655 42.9465 23.4204 42.611 23.6061V22.3358C42.611 17.3096 42.611 12.2833 42.611 7.25502C42.611 5.54374 42.9719 3.66365 40.406 3.1087L40.6782 2.81751L40.6803 2.81962ZM45.8521 15.5265H45.8753C45.8753 16.7208 45.8669 17.9152 45.8817 19.1095C45.8859 19.388 45.9534 19.6665 46.0083 19.9408C46.3058 21.4221 47.1646 22.2999 48.5383 22.5405C49.8528 22.7684 51.2307 22.1184 51.9482 20.9305C53.3598 18.5946 52.9483 14.1001 51.14 12.0639C49.9984 10.7789 48.2281 10.3716 46.732 11.0215C46.1243 11.2853 45.7888 11.6292 45.8352 12.3656C45.9028 13.4165 45.8521 14.4736 45.8521 15.5265Z" fill="white"/>
<path d="M31.6492 23.1335H24.3377C24.5888 22.9077 24.6943 22.7284 24.8125 22.7199C26.1271 22.6355 26.3993 21.7472 26.4056 20.6689C26.4204 18.0334 26.4056 15.3979 26.4288 12.7646C26.4373 11.6884 26.0153 10.9478 24.9855 10.5743C24.8041 10.5089 24.65 10.3654 24.2069 10.0805C26.0448 9.66484 27.6168 9.29135 29.1994 8.98328C29.3323 8.95796 29.6573 9.35044 29.7037 9.58677C29.7881 10.0109 29.7269 10.4625 29.7269 10.9984C30.6216 10.4498 31.3411 9.85264 32.1661 9.54245C33.0608 9.20484 34.0568 8.97484 35.0084 8.97906C36.9455 8.98961 38.2284 10.0932 38.4057 12.0302C38.6082 14.2606 38.5513 16.5163 38.6019 18.7614C38.6146 19.3586 38.5977 19.9557 38.6188 20.5529C38.6736 22.1249 38.758 22.2241 40.2984 22.7368C40.3807 22.7642 40.4335 22.8803 40.6297 23.1018H33.2887C33.409 22.9204 33.4554 22.7727 33.5166 22.7663C35.0696 22.6271 35.3017 21.5552 35.2996 20.2933C35.2954 18.1495 35.3313 16.0077 35.2975 13.8639C35.2785 12.6801 35.1013 11.4837 33.8331 10.9414C32.5143 10.378 31.2757 10.8043 30.1468 11.5302C29.9168 11.6779 29.7522 12.102 29.748 12.4016C29.7227 15.1067 29.7438 17.8119 29.7438 20.517C29.7438 21.6839 30.0139 22.6271 31.4213 22.7157C31.4804 22.7199 31.5521 22.779 31.588 22.8318C31.6217 22.8824 31.6175 22.9605 31.6513 23.1293L31.6492 23.1335Z" fill="white"/>
<path d="M64.9885 8.86084C69.3057 8.85873 72.0573 11.739 72.0721 16.2778C72.0847 20.3566 69.0399 23.4711 65.0075 23.4985C60.5848 23.5301 57.8269 20.6309 57.8374 15.957C57.8459 11.8698 60.8759 8.86506 64.9885 8.86084ZM61.279 15.2671L61.4351 15.286C61.4351 15.706 61.4035 16.1301 61.4415 16.5479C61.6081 18.4469 61.8635 20.3334 63.2308 21.8125C64.7015 23.4035 67.0627 23.0301 67.8561 21.0318C68.2106 20.1392 68.3878 19.1348 68.4385 18.1705C68.5672 15.7397 68.4596 13.3173 67.1408 11.1524C66.474 10.0551 65.4907 9.43056 64.1508 9.60992C62.8425 9.78717 62.0893 10.6333 61.8149 11.855C61.5638 12.9755 61.452 14.1255 61.279 15.2628V15.2671Z" fill="white"/>
<path d="M73.1946 2.88284C74.9903 2.47771 76.5348 2.10422 78.0984 1.82358C78.2419 1.79826 78.6576 2.36165 78.6639 2.65917C78.7146 4.66164 78.6913 6.66411 78.6913 8.66658C78.6913 12.2157 78.6913 15.7649 78.6913 19.3141C78.6913 20.981 79.3961 22.2443 80.8057 23.1038H73.3845C73.5005 22.9307 73.5491 22.783 73.6082 22.7788C75.1886 22.6607 75.3743 21.5529 75.3764 20.31C75.3806 15.4252 75.3764 10.5424 75.3912 5.6576C75.3954 4.55192 74.9818 3.76486 73.9141 3.36394C73.7369 3.29642 73.5892 3.15082 73.1946 2.88284Z" fill="white"/>
<path d="M16.2159 10.0552C17.8175 9.70704 19.3178 9.38842 20.8138 9.05503C21.6621 8.86723 21.5376 9.4686 21.5376 9.94126C21.5439 12.927 21.5397 15.9128 21.5418 18.8986C21.5418 19.3543 21.5502 19.8122 21.5545 20.268C21.5629 21.5552 21.7908 22.6798 23.4113 22.7811C23.4725 22.7853 23.5232 22.9288 23.6666 23.1293H16.275C16.3953 22.9352 16.4375 22.7874 16.4966 22.7811C18.0158 22.5954 18.2311 22.146 18.288 20.3334C18.3661 17.911 18.2986 15.4866 18.326 13.0621C18.3408 11.8467 17.9652 10.9309 16.7055 10.5616C16.6084 10.5342 16.5198 10.4603 16.4396 10.3928C16.3911 10.3506 16.3636 10.2831 16.2159 10.0552Z" fill="white"/>
<path d="M17.6382 4.45927C17.7184 3.36836 18.6468 2.6446 19.8496 2.73955C20.9785 2.82817 21.7824 3.68487 21.717 4.72936C21.6537 5.77807 20.6514 6.60522 19.5288 6.5377C18.3662 6.46807 17.5559 5.57761 17.6382 4.45927Z" fill="white"/>
</g>
<defs>
<clipPath id="clip0_127_11">
<rect width="97.4858" height="22.9999" fill="white" transform="translate(0 0.924805)"/>
</clipPath>
</defs>
</svg>
