<svg width="196" height="33" viewBox="0 0 196 33" fill="none" xmlns="http://www.w3.org/2000/svg">
<path d="M9.03506 12.5974V28.3613H4.76868V12.5974H9.03506Z" fill="white"/>
<path d="M15.8115 13.4309C16.9956 12.5281 18.2835 12.0767 19.6751 12.0767C20.6516 12.0767 21.5977 12.2619 22.5132 12.6323C23.4288 13.0027 24.2039 13.5177 24.8387 14.1774C25.4856 14.8256 25.9495 15.601 26.2303 16.5038C26.5232 17.4066 26.6697 18.5351 26.6697 19.8892V28.3615H22.4034V20.1497C22.4034 18.3788 22.1287 17.1983 21.5794 16.608C21.0423 16.0409 20.3037 15.7573 19.3638 15.7573C18.1309 15.7573 17.2031 16.1219 16.5806 16.851C16.0679 17.4529 15.8115 18.6624 15.8115 20.4795V28.3615H11.5452V12.5976H15.8115V13.4309Z" fill="white"/>
<path d="M40.4956 15.8094L37.1814 17.3719C36.6931 16.7237 36.272 16.2839 35.918 16.0524C35.564 15.8094 35.1429 15.6879 34.6546 15.6879C34.1297 15.6879 33.7085 15.8036 33.3911 16.0351C33.0859 16.2666 32.9333 16.5733 32.9333 16.9552C32.9333 17.3024 33.0432 17.5571 33.2629 17.7191C33.4949 17.8811 34.0869 18.1358 35.039 18.483L36.5588 19.0212C37.6331 19.4147 38.4936 19.8661 39.1406 20.3754C40.1294 21.1508 40.6238 22.1925 40.6238 23.5004C40.6238 25.086 39.9647 26.4054 38.6462 27.4587C37.4866 28.4078 36.0705 28.8823 34.3982 28.8823C32.1765 28.8823 30.4431 28.0779 29.198 26.4691C28.7585 25.902 28.3252 25.0744 27.8979 23.9865L31.3769 22.667C31.9018 23.6508 32.378 24.3279 32.8053 24.6983C33.2447 25.0571 33.7817 25.2365 34.4165 25.2365C35.0024 25.2365 35.4724 25.086 35.8264 24.7851C36.1804 24.4841 36.3575 24.0906 36.3575 23.6045C36.3575 23.2689 36.2292 23.0085 35.9729 22.8233C35.7165 22.6265 35.1367 22.3661 34.2334 22.042L32.5488 21.4344C30.0708 20.5316 28.8317 19.0733 28.8317 17.0594C28.8317 15.5432 29.4482 14.3105 30.6811 13.3615C31.8164 12.505 33.1531 12.0767 34.6911 12.0767C35.9973 12.0767 37.1081 12.3719 38.0237 12.9622C38.9514 13.5524 39.7754 14.5015 40.4956 15.8094Z" fill="white"/>
<path d="M46.3198 12.5974V28.3613H42.0535V12.5974H46.3198Z" fill="white"/>
<path d="M65.2362 28.3615H60.9698V27.3545C59.5538 28.373 58.0645 28.8823 56.502 28.8823C53.9141 28.8823 51.7535 27.9622 50.0201 26.1219C48.5186 24.5362 47.7679 22.6497 47.7679 20.4622C47.7679 17.9274 48.7383 15.8383 50.6792 14.1948C52.3394 12.7828 54.2803 12.0767 56.502 12.0767C58.0645 12.0767 59.5538 12.586 60.9698 13.6045V4.66357H65.2362V28.3615ZM56.502 15.7573C55.0982 15.7573 53.9568 16.2897 53.0779 17.3545C52.4187 18.1647 52.0892 19.2006 52.0892 20.4622C52.0892 21.9436 52.5347 23.1126 53.4258 23.9691C54.2803 24.7909 55.3301 25.2017 56.5753 25.2017C58.0279 25.2017 59.1754 24.6693 60.0177 23.6045C60.6646 22.7712 60.9881 21.7179 60.9881 20.4448C60.9881 18.998 60.5548 17.8406 59.6881 16.9726C58.8702 16.1624 57.8082 15.7573 56.502 15.7573Z" fill="white"/>
<path d="M71.0604 21.9899C71.3046 22.8464 71.6586 23.5119 72.1224 23.9865C72.9403 24.8082 73.9718 25.2191 75.2169 25.2191C76.6696 25.2191 77.8476 24.7851 78.7509 23.917C78.9218 23.7434 79.2025 23.373 79.5932 22.8059L83.2187 24.2295C82.3886 25.5258 81.5707 26.4807 80.765 27.0941C79.1903 28.2862 77.3471 28.8823 75.2352 28.8823C72.5985 28.8823 70.4562 27.9622 68.8082 26.1219C67.38 24.5362 66.6659 22.6497 66.6659 20.4622C66.6659 18.9691 67.026 17.586 67.7462 16.3129C68.503 14.9587 69.5528 13.9054 70.8956 13.1531C72.1774 12.4355 73.5629 12.0767 75.0521 12.0767C77.4813 12.0767 79.465 12.8985 81.0031 14.542C82.5412 16.174 83.3102 18.2804 83.3102 20.8615C83.3102 21.0929 83.3041 21.4691 83.2919 21.9899H71.0604ZM79.0438 18.9691C78.3114 16.7585 76.9808 15.6531 75.0521 15.6531C74.0512 15.6531 73.2028 15.9425 72.507 16.5212C71.8234 17.0883 71.3412 17.9043 71.0604 18.9691H79.0438Z" fill="white"/>
<path d="M91.5548 28.8693V5.17139H95.8212V14.1124C97.2372 13.0938 98.7265 12.5846 100.289 12.5846C102.877 12.5846 105.038 13.4989 106.771 15.3276C108.272 16.9133 109.023 18.7941 109.023 20.97C109.023 23.5163 108.053 25.617 106.112 27.2721C104.452 28.6841 102.511 29.3901 100.289 29.3901C98.7265 29.3901 97.2372 28.8809 95.8212 27.8624V28.8693H91.5548ZM100.124 16.2651C98.7326 16.2651 97.6156 16.7975 96.7733 17.8624C96.1264 18.6841 95.8029 19.72 95.8029 20.97C95.8029 22.4399 96.2362 23.6089 97.1029 24.4769C97.933 25.2987 98.9706 25.7096 100.216 25.7096C101.668 25.7096 102.834 25.1714 103.713 24.095C104.372 23.2848 104.702 22.2431 104.702 20.97C104.702 19.5001 104.256 18.3369 103.365 17.4804C102.523 16.6702 101.443 16.2651 100.124 16.2651Z" fill="white"/>
<path d="M114.719 13.1055V28.8694H110.453V13.1055H114.719Z" fill="white"/>
<path d="M121.679 16.7512V23.7825C121.679 24.3728 121.734 24.7779 121.843 24.9978C121.966 25.2177 122.191 25.3276 122.521 25.3276C122.936 25.3276 123.589 25.1945 124.48 24.9283V28.7651C123.565 29.0313 122.741 29.1644 122.008 29.1644C120.531 29.1644 119.396 28.7015 118.603 27.7755C117.809 26.838 117.412 25.507 117.412 23.7825V16.7512H115.673V13.1054H117.412V9.72L121.679 8.14014V13.1054H124.242V16.7512H121.679Z" fill="white"/>
<path d="M137.61 18.4701C136.67 17.5442 135.938 16.9481 135.413 16.6819C134.888 16.4041 134.211 16.2652 133.381 16.2652C131.843 16.2652 130.646 16.7976 129.792 17.8625C129.133 18.6726 128.803 19.7085 128.803 20.9701C128.803 22.4516 129.249 23.6206 130.14 24.477C130.982 25.2988 132.068 25.7097 133.399 25.7097C134.229 25.7097 134.961 25.5419 135.596 25.2062C136.231 24.859 136.933 24.2513 137.702 23.3833L140.558 25.9875C139.399 27.2027 138.263 28.0766 137.153 28.609C136.042 29.1298 134.784 29.3902 133.381 29.3902C130.658 29.3902 128.437 28.4759 126.716 26.6472C125.226 25.05 124.482 23.1634 124.482 20.9875C124.482 18.4412 125.452 16.3405 127.393 14.6854C129.041 13.2849 131.037 12.5847 133.381 12.5847C134.748 12.5847 135.975 12.8393 137.061 13.3486C138.16 13.8463 139.289 14.6854 140.449 15.8659L137.61 18.4701Z" fill="white"/>
<path d="M148.891 12.5847C151.442 12.5847 153.585 13.499 155.318 15.3277C156.82 16.9134 157.57 18.7942 157.57 20.9701C157.57 23.5164 156.6 25.6171 154.659 27.2722C153.011 28.6842 151.04 29.3902 148.745 29.3902C146.071 29.3902 143.868 28.4759 142.135 26.6472C140.645 25.0615 139.901 23.1518 139.901 20.918C139.901 18.4296 140.871 16.3578 142.812 14.7027C144.46 13.2907 146.486 12.5847 148.891 12.5847ZM148.653 16.2652C147.237 16.2652 146.09 16.7976 145.211 17.8625C144.552 18.6726 144.222 19.7085 144.222 20.9701C144.222 22.4516 144.668 23.6206 145.559 24.477C146.413 25.2988 147.475 25.7097 148.745 25.7097C150.222 25.7097 151.394 25.1715 152.26 24.0951C152.92 23.2849 153.249 22.2432 153.249 20.9701C153.249 19.5002 152.804 18.337 151.912 17.4805C151.07 16.6703 149.984 16.2652 148.653 16.2652Z" fill="white"/>
<path d="M163.248 13.1055V28.8694H158.982V13.1055H163.248Z" fill="white"/>
<path d="M170.025 13.9388C171.209 13.0361 172.497 12.5847 173.888 12.5847C174.865 12.5847 175.811 12.7699 176.726 13.1402C177.642 13.5106 178.417 14.0256 179.052 14.6854C179.699 15.3335 180.163 16.109 180.443 17.0118C180.736 17.9145 180.883 19.043 180.883 20.3972V28.8694H176.616V20.6576C176.616 18.8868 176.342 17.7062 175.792 17.1159C175.255 16.5488 174.517 16.2652 173.577 16.2652C172.344 16.2652 171.416 16.6298 170.794 17.359C170.281 17.9608 170.025 19.1703 170.025 20.9875V28.8694H165.758V13.1055H170.025V13.9388Z" fill="white"/>
<path d="M194.709 16.3173L191.395 17.8798C190.906 17.2317 190.485 16.7919 190.131 16.5604C189.777 16.3173 189.356 16.1958 188.868 16.1958C188.343 16.1958 187.922 16.3115 187.604 16.543C187.299 16.7745 187.146 17.0812 187.146 17.4631C187.146 17.8104 187.256 18.065 187.476 18.227C187.708 18.3891 188.3 18.6437 189.252 18.9909L190.772 19.5291C191.846 19.9226 192.707 20.374 193.354 20.8833C194.343 21.6588 194.837 22.7004 194.837 24.0083C194.837 25.5939 194.178 26.9134 192.859 27.9666C191.7 28.9157 190.284 29.3902 188.611 29.3902C186.39 29.3902 184.656 28.5858 183.411 26.977C182.972 26.4099 182.538 25.5824 182.111 24.4944L185.59 23.175C186.115 24.1588 186.591 24.8358 187.018 25.2062C187.458 25.565 187.995 25.7444 188.63 25.7444C189.216 25.7444 189.686 25.5939 190.04 25.293C190.394 24.9921 190.571 24.5986 190.571 24.1125C190.571 23.7768 190.442 23.5164 190.186 23.3312C189.93 23.1344 189.35 22.874 188.447 22.55L186.762 21.9423C184.284 21.0395 183.045 19.5812 183.045 17.5673C183.045 16.0511 183.661 14.8185 184.894 13.8694C186.03 13.0129 187.366 12.5847 188.904 12.5847C190.21 12.5847 191.321 12.8798 192.237 13.4701C193.165 14.0604 193.989 15.0094 194.709 16.3173Z" fill="white"/>
</svg>
