<svg width="269" height="46" viewBox="0 0 269 46" fill="none" xmlns="http://www.w3.org/2000/svg">
<g clip-path="url(#clip0_64_805)">
<path d="M119.72 0.928223H0V45.0718H119.72V0.928223Z" fill="#F6A330"/>
<path d="M11.5946 17.7203V39.4664H5.70923V17.7203H11.5946Z" fill="#221515"/>
<path d="M20.9424 18.8698C22.5759 17.6244 24.3525 17.0017 26.2722 17.0017C27.6193 17.0017 28.9244 17.2572 30.1873 17.7682C31.4504 18.2791 32.5196 18.9895 33.3953 19.8996C34.2877 20.7938 34.9277 21.8634 35.315 23.1088C35.7191 24.3542 35.9212 25.911 35.9212 27.779V39.4664H30.0359V28.1383C30.0359 25.6954 29.6569 24.0669 28.8992 23.2526C28.1583 22.4703 27.1394 22.079 25.8428 22.079C24.142 22.079 22.8621 22.582 22.0034 23.5878C21.2961 24.4181 20.9424 26.0866 20.9424 28.5933V39.4664H15.0571V17.7203H20.9424V18.8698Z" fill="#221515"/>
<path d="M54.9941 22.1509L50.4222 24.3064C49.7486 23.4122 49.1677 22.8055 48.6793 22.4861C48.191 22.1509 47.61 21.9833 46.9364 21.9833C46.2123 21.9833 45.6314 22.1429 45.1935 22.4623C44.7725 22.7816 44.562 23.2047 44.562 23.7315C44.562 24.2105 44.7136 24.5619 45.0167 24.7853C45.3367 25.0088 46.1534 25.3602 47.4668 25.8391L49.5633 26.5816C51.0453 27.1244 52.2324 27.7471 53.1249 28.4497C54.4889 29.5193 55.1709 30.9563 55.1709 32.7606C55.1709 34.9479 54.2616 36.768 52.4429 38.221C50.8432 39.5303 48.8897 40.1848 46.5828 40.1848C43.518 40.1848 41.1268 39.0752 39.4092 36.8558C38.8029 36.0735 38.2052 34.9319 37.6157 33.4311L42.415 31.6109C43.1391 32.968 43.7958 33.9021 44.3853 34.413C44.9914 34.908 45.7323 35.1555 46.608 35.1555C47.4163 35.1555 48.0646 34.9479 48.553 34.5328C49.0413 34.1176 49.2855 33.5747 49.2855 32.9042C49.2855 32.4412 49.1086 32.082 48.7551 31.8265C48.4014 31.555 47.6016 31.1958 46.3555 30.7487L44.0316 29.9105C40.6132 28.6651 38.9039 26.6534 38.9039 23.8753C38.9039 21.7837 39.7543 20.0832 41.4551 18.7741C43.0212 17.5925 44.8652 17.0017 46.9869 17.0017C48.7887 17.0017 50.3211 17.4089 51.5841 18.2232C52.8639 19.0374 54.0006 20.3467 54.9941 22.1509Z" fill="#221515"/>
<path d="M63.0286 17.7203V39.4664H57.1433V17.7203H63.0286Z" fill="#221515"/>
<path d="M89.1234 39.4664H83.238V38.0773C81.2846 39.4823 79.2302 40.1848 77.0747 40.1848C73.5047 40.1848 70.5242 38.9156 68.133 36.3769C66.0617 34.1895 65.0261 31.5871 65.0261 28.5694C65.0261 25.0727 66.3648 22.1908 69.0422 19.9236C71.3324 17.9758 74.0099 17.0017 77.0747 17.0017C79.2302 17.0017 81.2846 17.7043 83.238 19.1093V6.77539H89.1234V39.4664ZM77.0747 22.0791C75.1382 22.0791 73.5636 22.8135 72.3512 24.2824C71.4418 25.4001 70.9873 26.8291 70.9873 28.5694C70.9873 30.613 71.6019 32.2256 72.8311 33.4072C74.0099 34.5408 75.4581 35.1075 77.1758 35.1075C79.1797 35.1075 80.7626 34.3731 81.9246 32.9042C82.817 31.7547 83.2632 30.3016 83.2632 28.5454C83.2632 26.5496 82.6655 24.953 81.4699 23.7556C80.3416 22.6379 78.8766 22.0791 77.0747 22.0791Z" fill="#221515"/>
<path d="M97.1579 30.6768C97.4947 31.8584 97.9831 32.7764 98.6229 33.4311C99.7512 34.5647 101.174 35.1315 102.892 35.1315C104.896 35.1315 106.521 34.5328 107.767 33.3353C108.003 33.0958 108.39 32.5848 108.929 31.8025L113.93 33.7663C112.785 35.5546 111.657 36.8718 110.545 37.718C108.373 39.3625 105.83 40.1848 102.917 40.1848C99.2797 40.1848 96.3244 38.9156 94.051 36.3769C92.0808 34.1894 91.0957 31.587 91.0957 28.5694C91.0957 26.5097 91.5925 24.6017 92.586 22.8455C93.63 20.9774 95.0782 19.5244 96.9305 18.4866C98.6988 17.4967 100.61 17.0017 102.664 17.0017C106.015 17.0017 108.752 18.1354 110.874 20.4026C112.995 22.6539 114.056 25.5596 114.056 29.1202C114.056 29.4394 114.048 29.9584 114.031 30.6768H97.1579ZM108.171 26.5097C107.161 23.4602 105.325 21.9353 102.664 21.9353C101.284 21.9353 100.113 22.3345 99.1534 23.1328C98.2104 23.9151 97.5452 25.0408 97.1579 26.5097H108.171Z" fill="#221515"/>
<path d="M125.43 40.167V7.47607H131.315V19.8101C133.268 18.405 135.323 17.7025 137.478 17.7025C141.049 17.7025 144.03 18.9638 146.42 21.4864C148.491 23.6739 149.527 26.2684 149.527 29.2701C149.527 32.7827 148.189 35.6805 145.511 37.9637C143.221 39.9116 140.544 40.8855 137.478 40.8855C135.323 40.8855 133.268 40.1831 131.315 38.778V40.167H125.43ZM137.251 22.7797C135.331 22.7797 133.79 23.5142 132.629 24.9832C131.736 26.1167 131.29 27.5457 131.29 29.2701C131.29 31.2978 131.888 32.9104 133.083 34.1078C134.228 35.2415 135.66 35.8083 137.377 35.8083C139.381 35.8083 140.989 35.0658 142.202 33.581C143.111 32.4633 143.566 31.0263 143.566 29.2701C143.566 27.2424 142.951 25.6377 141.722 24.4562C140.56 23.3385 139.07 22.7797 137.251 22.7797Z" fill="#221515"/>
<path d="M157.384 18.4209V40.167H151.5V18.4209H157.384Z" fill="#221515"/>
<path d="M166.985 23.4503V33.1499C166.985 33.9642 167.061 34.523 167.212 34.8263C167.381 35.1297 167.692 35.2813 168.147 35.2813C168.719 35.2813 169.62 35.0977 170.849 34.7305V40.0233C169.587 40.3905 168.45 40.5741 167.439 40.5741C165.402 40.5741 163.836 39.9356 162.742 38.6582C161.647 37.3649 161.099 35.5288 161.099 33.1499V23.4503H158.7V18.4209H161.099V13.7508L166.985 11.5714V18.4209H170.521V23.4503H166.985Z" fill="#221515"/>
<path d="M188.962 25.8213C187.665 24.5441 186.656 23.7218 185.931 23.3545C185.207 22.9713 184.273 22.7797 183.128 22.7797C181.007 22.7797 179.355 23.5142 178.177 24.9832C177.268 26.1007 176.813 27.5297 176.813 29.2701C176.813 31.3138 177.428 32.9264 178.657 34.1078C179.819 35.2415 181.317 35.8083 183.153 35.8083C184.298 35.8083 185.308 35.5768 186.184 35.1137C187.06 34.6348 188.028 33.7964 189.089 32.599L193.029 36.1915C191.43 37.8679 189.863 39.0734 188.332 39.8078C186.799 40.5263 185.064 40.8855 183.128 40.8855C179.372 40.8855 176.308 39.6242 173.934 37.1016C171.879 34.8982 170.852 32.2957 170.852 29.2941C170.852 25.7815 172.19 22.8836 174.868 20.6004C177.141 18.6684 179.895 17.7025 183.128 17.7025C185.014 17.7025 186.707 18.0537 188.205 18.7563C189.721 19.4429 191.278 20.6004 192.879 22.2289L188.962 25.8213Z" fill="#221515"/>
<path d="M204.524 17.7025C208.043 17.7025 210.999 18.9638 213.39 21.4864C215.462 23.6739 216.497 26.2684 216.497 29.2701C216.497 32.7827 215.159 35.6805 212.481 37.9637C210.208 39.9116 207.489 40.8855 204.323 40.8855C200.634 40.8855 197.595 39.6242 195.204 37.1016C193.149 34.9141 192.123 32.2797 192.123 29.1982C192.123 25.7655 193.461 22.9075 196.138 20.6243C198.412 18.6764 201.206 17.7025 204.524 17.7025ZM204.196 22.7797C202.242 22.7797 200.66 23.5142 199.448 24.9832C198.539 26.1007 198.083 27.5297 198.083 29.2701C198.083 31.3138 198.699 32.9264 199.928 34.1078C201.106 35.2415 202.571 35.8083 204.323 35.8083C206.36 35.8083 207.977 35.0658 209.172 33.581C210.082 32.4633 210.536 31.0263 210.536 29.2701C210.536 27.2424 209.922 25.6377 208.692 24.4562C207.53 23.3385 206.032 22.7797 204.196 22.7797Z" fill="#221515"/>
<path d="M224.329 18.4209V40.167H218.445V18.4209H224.329Z" fill="#221515"/>
<path d="M233.678 19.5705C235.312 18.3252 237.088 17.7025 239.007 17.7025C240.355 17.7025 241.66 17.958 242.922 18.4688C244.186 18.9798 245.255 19.6902 246.131 20.6004C247.023 21.4944 247.664 22.5642 248.05 23.8096C248.454 25.0549 248.657 26.6117 248.657 28.4798V40.167H242.77V28.839C242.77 26.3962 242.392 24.7676 241.634 23.9532C240.893 23.1709 239.875 22.7797 238.578 22.7797C236.877 22.7797 235.597 23.2827 234.739 24.2886C234.031 25.1188 233.678 26.7873 233.678 29.2941V40.167H227.792V18.421H233.678V19.5705Z" fill="#221515"/>
<path d="M267.73 22.8516L263.158 25.007C262.483 24.113 261.903 23.5063 261.414 23.1869C260.926 22.8516 260.345 22.684 259.672 22.684C258.948 22.684 258.367 22.8436 257.928 23.1629C257.508 23.4823 257.297 23.9054 257.297 24.4322C257.297 24.9113 257.448 25.2625 257.752 25.486C258.072 25.7096 258.888 26.0608 260.202 26.5398L262.299 27.2822C263.78 27.8251 264.968 28.4478 265.86 29.1503C267.225 30.2201 267.906 31.657 267.906 33.4612C267.906 35.6485 266.997 37.4688 265.178 38.9216C263.579 40.2309 261.625 40.8855 259.317 40.8855C256.254 40.8855 253.862 39.7758 252.144 37.5565C251.539 36.7742 250.94 35.6327 250.351 34.1318L255.15 32.3117C255.874 33.6688 256.531 34.6027 257.12 35.1137C257.727 35.6087 258.468 35.8562 259.344 35.8562C260.152 35.8562 260.8 35.6485 261.289 35.2334C261.777 34.8184 262.021 34.2755 262.021 33.605C262.021 33.1419 261.843 32.7827 261.49 32.5272C261.137 32.2557 260.337 31.8965 259.091 31.4495L256.767 30.6112C253.348 29.3658 251.639 27.3541 251.639 24.5759C251.639 22.4844 252.489 20.784 254.19 19.4747C255.757 18.2932 257.6 17.7025 259.722 17.7025C261.523 17.7025 263.056 18.1096 264.32 18.9239C265.6 19.7382 266.736 21.0474 267.73 22.8516Z" fill="#221515"/>
</g>
<defs>
<clipPath id="clip0_64_805">
<rect width="269" height="44.1436" fill="white" transform="translate(0 0.928223)"/>
</clipPath>
</defs>
</svg>
