<svg width="200" height="48" viewBox="0 0 200 48" fill="none" xmlns="http://www.w3.org/2000/svg">
<path fill-rule="evenodd" clip-rule="evenodd" d="M1.03795 34.4585C1.08255 35.0736 1.12716 35.6888 1.12716 36.26V36.3479H1.84088C2.06391 36.0403 2.24234 35.7547 2.42077 35.4691C2.5992 35.1835 2.77763 34.8979 3.00067 34.5903C6.14154 30.1617 9.36744 25.6913 12.561 21.2658L12.5616 21.2649C13.9941 19.2798 15.4201 17.3037 16.829 15.3444C17.0966 15.0808 17.7211 14.6414 17.7211 14.6414H25.9289C19.7731 23.1658 13.7064 31.6023 7.72905 39.951C7.72905 40.0389 7.90748 40.2146 7.90748 40.2146C9.54623 41.1009 11.1965 42.0099 12.8584 42.9254L12.859 42.9257L12.8597 42.9261C15.8116 44.5521 18.8 46.1982 21.825 47.7724C22.2711 48.036 23.1632 48.036 23.6093 47.7724C27.4255 45.5706 31.2749 43.4017 35.1374 41.2255L35.1386 41.2248L35.1395 41.2242L35.1398 41.2241C37.5973 39.8394 40.0601 38.4518 42.5228 37.0509C43.2365 36.6115 43.6826 35.9085 43.6826 35.0297C43.7103 34.3197 43.7467 33.5928 43.7836 32.8542C43.8655 31.2157 43.9503 29.5196 43.9503 27.8235C43.9204 26.4112 43.9005 24.9892 43.8806 23.5638V23.5637V23.5636V23.5634V23.5633V23.5632V23.5631C43.841 20.7312 43.8013 17.8865 43.6826 15.0808C43.6826 14.2019 43.5934 13.4989 43.415 12.4443C43.0581 12.8837 42.9689 12.9716 42.7905 13.1474C39.3111 18.0906 35.6813 23.1821 32.0514 28.2736C30.8414 29.9709 29.6313 31.6682 28.4269 33.3599C27.9808 33.9751 27.5347 34.2388 26.821 34.2388H20.2191C20.0853 34.2388 19.9292 34.1948 19.7731 34.1509C19.6169 34.1069 19.4608 34.063 19.327 34.063C24.4245 26.7933 29.587 19.5875 34.7036 12.4457L34.7044 12.4446L34.7048 12.444L34.7105 12.4361L34.7292 12.41L34.7649 12.3602L34.7716 12.3508C35.632 11.1498 36.4911 9.95069 37.3484 8.75334C37.2395 8.64605 37.1749 8.55332 37.1245 8.48106C37.0512 8.37576 37.0081 8.31394 36.9023 8.31394C35.3856 7.49371 33.869 6.65396 32.3523 5.81421C29.319 4.13472 26.2857 2.45522 23.2524 0.931954C22.6279 0.844073 21.825 0.844073 21.2005 1.10772C18.5623 2.53892 15.9241 4.01855 13.2858 5.49818L13.2858 5.49819L13.2858 5.49822C9.76819 7.47103 6.25061 9.44385 2.73303 11.3019C1.3948 12.0928 0.94873 13.0595 0.94873 14.3777V32.6569C0.94873 33.2281 0.993338 33.8433 1.03795 34.4585ZM163.766 29.3174C163.855 26.681 162.873 24.8355 160.375 23.7809C160.423 23.7573 160.465 23.7401 160.503 23.7241C160.608 23.6804 160.691 23.6459 160.821 23.5173C162.784 22.4627 163.498 20.6172 163.052 18.5959C162.606 16.6626 161.089 15.5201 159.216 15.2565C157.851 14.9765 156.378 14.9463 154.889 14.9157C154.041 14.8983 153.188 14.8808 152.346 14.8171H147.796C147.618 15.1686 147.618 15.4322 147.618 15.4322V32.9205C147.618 33.7993 148.064 33.7993 148.688 33.7993H156.45C157.61 33.7993 158.591 33.7993 159.662 33.5357C161.892 32.9205 163.587 31.1629 163.766 29.3174ZM154.034 30.0601L154.034 30.0601L154.034 30.0601C153.42 30.0404 152.799 30.0204 152.168 30.0204C152.168 28.7315 152.172 27.4406 152.346 26.0658C154.13 26.0658 156.004 26.1537 157.788 26.3294C158.77 26.4173 159.394 27.1204 159.394 28.1749C159.216 29.1416 158.502 29.8447 157.61 30.0204C156.427 30.137 155.244 30.099 154.034 30.0601ZM153.774 22.4139C153.238 22.3943 152.703 22.3748 152.168 22.3748H152.078V18.5959C152.617 18.5959 153.166 18.5762 153.711 18.5565C154.791 18.5176 155.858 18.4791 156.807 18.5959C157.699 18.7717 158.591 19.2111 158.591 20.3535C158.591 21.496 158.145 22.199 156.985 22.3748C155.915 22.492 154.844 22.4529 153.774 22.4139ZM111.04 14.9931C111.843 17.5418 112.624 20.0685 113.404 22.5952L113.405 22.5955L113.405 22.5961L113.405 22.5967L113.405 22.5972L113.405 22.5978C114.186 25.1234 114.966 27.6489 115.768 30.1964H116.036C116.839 27.6479 117.62 25.1213 118.4 22.5948C119.181 20.0682 119.962 17.5416 120.765 14.9931H123.53C122.912 16.7396 122.331 18.4861 121.754 20.2239C121.082 22.2462 120.414 24.2567 119.694 26.2418C119.432 27.0478 119.146 27.842 118.858 28.6417C118.362 30.0218 117.859 31.4185 117.464 32.9207C117.234 34.0518 116.413 34.0183 115.621 33.986C115.49 33.9806 115.36 33.9753 115.233 33.9753C114.519 33.9753 114.073 33.7117 113.895 32.9207C112.557 28.2631 111.129 23.7812 109.523 18.772C108.899 20.3538 108.453 21.8478 108.096 23.0781C107.561 24.7478 107.048 26.3736 106.535 27.9994C106.022 29.6252 105.509 31.251 104.973 32.9207C104.795 33.6238 104.349 33.9753 103.635 33.9753C103.414 33.9208 103.158 33.9424 102.902 33.9641C102.334 34.0121 101.768 34.06 101.583 33.2723C100.557 30.2404 99.576 27.2305 98.5946 24.2206C97.6133 21.2106 96.6319 18.2007 95.6059 15.1688C95.7105 15.1688 95.7538 15.1085 95.7896 15.0586C95.815 15.0232 95.8366 14.9931 95.8736 14.9931C98.3716 14.8173 98.55 14.8173 99.2637 17.1901C99.4234 17.6932 99.583 18.1951 99.7423 18.6961C100.919 22.3949 102.079 26.0419 103.1 29.757C103.1 29.8409 103.141 29.9047 103.193 29.9867C103.25 30.0766 103.321 30.1884 103.368 30.3722C104.108 27.8934 104.875 25.4683 105.64 23.0524L105.64 23.0523L105.64 23.0522L105.64 23.0521L105.64 23.0519L105.64 23.0517C106.258 21.0997 106.873 19.1537 107.471 17.1901C107.632 16.7545 107.751 16.4002 107.847 16.1125C108.062 15.4705 108.165 15.1609 108.38 15.0212C108.58 14.8911 108.875 14.9087 109.447 14.9425C109.817 14.9644 110.302 14.9931 110.951 14.9931H111.04ZM198.381 29.1419L198.381 29.1414C197.979 28.7022 197.578 28.2629 197.132 27.8237C192.85 30.7238 190.173 30.7237 187.854 27.9994C186.069 25.8903 186.248 22.3751 188.121 20.3538C189.014 19.2993 190.173 18.772 191.512 18.5962C193.742 18.2447 195.526 19.2993 197.132 20.8811C197.335 20.6411 197.538 20.4056 197.739 20.1726L197.742 20.169L197.744 20.1672L197.745 20.1663C198.425 19.3779 199.08 18.6177 199.63 17.8053C195.883 13.587 188.835 13.4991 184.91 17.3659C181.073 21.3205 181.073 27.9994 185.802 31.8662C189.906 35.2057 196.151 34.6784 199.63 30.4601C199.184 30.0209 198.783 29.5816 198.381 29.1423L198.381 29.1419ZM61.4366 19.7387V33.7996H58.7601V15.081C60.5444 14.6416 61.7042 15.081 62.6856 16.4871C64.551 19.2138 66.5788 21.9404 68.6867 24.7749L68.6868 24.7751L68.6871 24.7754C69.7043 26.1432 70.7402 27.5361 71.7855 28.9662V14.9053H74.4619V33.536C72.5884 34.1512 72.1423 33.7996 71.0718 32.3935C70.5951 31.7496 70.1205 31.1097 69.6479 30.4727L69.629 30.4472L69.6068 30.4172L69.5996 30.4075C66.9937 26.8945 64.4512 23.4668 61.9719 19.9145C61.8867 19.9145 61.8219 19.8745 61.7387 19.8231C61.6474 19.7668 61.534 19.6968 61.3474 19.6508L61.4366 19.7387ZM82.4019 25.5385H91.5018L91.4126 25.4506V25.4505C91.4126 24.5717 91.4126 23.7808 91.591 22.7263H82.4911V17.102H92.7508V14.8171H79.7254V33.6235H92.9292V31.1629H82.4019V25.5385ZM181.252 14.8173L181.43 15.0809C181.608 17.483 180.478 18.684 178.04 18.684H175.809V33.6237H171.438V18.684H166.888C165.817 18.684 165.55 18.4204 165.55 17.3658C165.55 15.6082 166.442 14.7294 168.226 14.7294H181.252V14.8173ZM125.328 30.0347C125.18 30.3065 125.024 30.5923 124.868 30.8995H124.69C127.366 33.3602 130.489 34.3269 133.968 34.0633C136.109 33.7996 138.072 32.745 138.786 30.7238C139.856 27.8237 139.232 25.3631 135.574 23.957C134.682 23.6055 133.812 23.2759 132.942 22.9464C132.072 22.6168 131.202 22.2873 130.31 21.9357C129.24 21.4963 128.704 20.7054 128.972 19.6508C129.24 18.9478 129.953 18.3326 130.578 17.8932C131.024 17.6296 131.738 17.4538 132.362 17.6296C133.499 17.7976 134.636 18.1083 135.796 18.4253C136.456 18.6058 137.124 18.7884 137.804 18.9478C138.008 18.5968 138.182 18.2173 138.378 17.7928C138.524 17.4732 138.683 17.1282 138.875 16.7507C136.109 15.1689 133.165 14.4659 129.953 15.3447C127.634 15.8719 126.206 17.4538 126.028 19.2114C125.76 22.2872 126.92 23.6933 129.418 24.7479C130.022 24.9577 130.639 25.1537 131.265 25.3523C132.213 25.6527 133.18 25.9594 134.146 26.3298C135.128 26.7692 136.02 27.2964 136.198 28.6147C136.377 30.0207 135.128 31.1632 133.254 31.339C130.399 31.5147 128.08 30.4601 126.028 28.6147C125.854 29.0719 125.604 29.5291 125.328 30.0347Z" fill="white"/>
</svg>
