<svg width="106" height="108" viewBox="0 0 106 108" fill="none" xmlns="http://www.w3.org/2000/svg">
<g clip-path="url(#clip0_261_70)">
<path d="M53.0747 107.778C82.3282 107.778 106.043 84.1972 106.043 55.1094C106.043 26.0214 82.3282 2.44092 53.0747 2.44092C23.8211 2.44092 0.106445 26.0214 0.106445 55.1094C0.106445 84.1972 23.8211 107.778 53.0747 107.778Z" fill="#03110C"/>
<path d="M53.0747 103.751C40.0084 103.751 27.7238 98.6917 18.4842 89.5044C9.24455 80.3171 4.15588 68.1019 4.15588 55.1097C4.15588 42.1173 9.24455 29.9023 18.4842 20.7149C27.7238 11.5276 40.0084 6.46777 53.0747 6.46777C66.1409 6.46777 78.4257 11.5276 87.6651 20.7149C96.9047 29.9023 101.993 42.1173 101.993 55.1097C101.993 68.1019 96.9047 80.3171 87.6651 89.5044C78.4257 98.6917 66.1409 103.751 53.0747 103.751ZM53.0747 8.63391C27.301 8.63391 6.33435 29.4834 6.33435 55.1097C6.33435 80.7358 27.3025 101.585 53.0747 101.585C78.8467 101.585 99.8165 80.7358 99.8165 55.1097C99.8165 29.4834 78.8467 8.63391 53.0747 8.63391Z" fill="url(#paint0_linear_261_70)"/>
<path d="M53.0745 107.81C38.9175 107.81 25.6074 102.328 15.5981 92.374C5.58744 82.42 0.074585 69.1867 0.074585 55.1097C0.074585 41.0328 5.58744 27.7978 15.5981 17.8453C25.6074 7.89132 38.9175 2.40967 53.0745 2.40967C67.2317 2.40967 80.5418 7.89132 90.551 17.8453C100.562 27.7993 106.075 41.0328 106.075 55.1097C106.075 69.1867 100.562 82.4215 90.551 92.374C80.5403 102.328 67.2301 107.81 53.0745 107.81ZM53.0745 4.5728C25.0498 4.5728 2.25155 27.2434 2.25155 55.1081C2.25155 82.9728 25.0514 105.644 53.0745 105.644C81.0978 105.644 103.898 82.9728 103.898 55.1081C103.898 27.2434 81.0978 4.5728 53.0745 4.5728Z" fill="url(#paint1_linear_261_70)"/>
<path fill-rule="evenodd" clip-rule="evenodd" d="M47.2472 43.4138C45.74 44.5372 45.0589 45.8836 45.0589 47.1402C45.0589 48.3996 45.74 49.746 47.2472 50.8721C48.7572 51.9981 50.9675 52.7761 53.5252 52.7761C54.2507 52.7761 54.9465 53.0626 55.4595 53.5727C55.9725 54.0828 56.2607 54.7747 56.2607 55.4961C56.2607 56.2175 55.9725 56.9093 55.4595 57.4194C54.9465 57.9295 54.2507 58.2161 53.5252 58.2161C49.8979 58.2161 46.5087 57.1226 43.9647 55.2241C41.4207 53.3255 39.5879 50.4967 39.5879 47.1429C39.5879 43.7865 41.4207 40.9577 43.9647 39.0591C46.5087 37.1633 49.9007 36.0698 53.5252 36.0698C59.1411 36.0698 64.4507 38.7436 66.5625 43.1962C66.7157 43.5195 66.8034 43.8696 66.8205 44.2265C66.8377 44.5835 66.7839 44.9403 66.6624 45.2766C66.5408 45.6129 66.3539 45.9221 66.1121 46.1866C65.8704 46.451 65.5787 46.6656 65.2536 46.8179C64.9285 46.9702 64.5764 47.0574 64.2174 47.0745C63.8584 47.0915 63.4995 47.0381 63.1613 46.9172C62.8231 46.7964 62.5121 46.6104 62.2462 46.3701C61.9802 46.1297 61.7645 45.8396 61.6113 45.5164C60.6539 43.4845 57.6667 41.5098 53.5279 41.5098C50.9702 41.5098 48.7572 42.2877 47.2472 43.4138Z" fill="url(#paint2_linear_261_70)"/>
<path fill-rule="evenodd" clip-rule="evenodd" d="M58.9004 67.5756C60.4076 66.4523 61.086 65.1059 61.086 63.8492C61.086 62.5899 60.4076 61.2408 58.8976 60.1174C57.3904 58.9913 55.1774 58.2134 52.6224 58.2134C51.8969 58.2134 51.2012 57.9268 50.6882 57.4167C50.1752 56.9066 49.887 56.2148 49.887 55.4934C49.887 54.772 50.1752 54.0802 50.6882 53.5701C51.2012 53.06 51.8969 52.7734 52.6224 52.7734C56.2497 52.7734 59.639 53.8668 62.183 55.7654C64.727 57.664 66.557 60.4928 66.557 63.8465C66.557 67.2003 64.727 70.0318 62.1802 71.9276C59.6362 73.8262 56.2497 74.9196 52.6224 74.9196C47.0065 74.9196 41.6942 72.2459 39.5851 67.7905C39.2757 67.138 39.2396 66.39 39.4848 65.7111C39.7301 65.0321 40.2365 64.4779 40.8927 64.1702C41.5489 63.8625 42.3011 63.8267 42.984 64.0705C43.6668 64.3143 44.2242 64.8179 44.5336 65.4704C45.4965 67.5049 48.4837 69.4796 52.6224 69.4796C55.1801 69.4796 57.3904 68.7017 58.9004 67.5756ZM52.9999 30.6299C53.7254 30.6299 54.4212 30.9165 54.9342 31.4266C55.4472 31.9367 55.7354 32.6285 55.7354 33.3499V36.0699C55.7354 36.7913 55.4472 37.4831 54.9342 37.9932C54.4212 38.5033 53.7254 38.7899 52.9999 38.7899C52.2744 38.7899 51.5787 38.5033 51.0657 37.9932C50.5527 37.4831 50.2645 36.7913 50.2645 36.0699V33.3499C50.2645 32.6285 50.5527 31.9367 51.0657 31.4266C51.5787 30.9165 52.2744 30.6299 52.9999 30.6299Z" fill="url(#paint3_linear_261_70)"/>
<path fill-rule="evenodd" clip-rule="evenodd" d="M52.9999 71.4297C53.7254 71.4297 54.4212 71.7163 54.9342 72.2264C55.4472 72.7365 55.7354 73.4283 55.7354 74.1497V76.8697C55.7354 77.5911 55.4472 78.2829 54.9342 78.793C54.4212 79.3031 53.7254 79.5897 52.9999 79.5897C52.2744 79.5897 51.5786 79.3031 51.0656 78.793C50.5526 78.2829 50.2644 77.5911 50.2644 76.8697V74.1497C50.2644 73.4283 50.5526 72.7365 51.0656 72.2264C51.5786 71.7163 52.2744 71.4297 52.9999 71.4297Z" fill="url(#paint4_linear_261_70)"/>
</g>
<defs>
<linearGradient id="paint0_linear_261_70" x1="52.3414" y1="14.9305" x2="54.0939" y2="112.197" gradientUnits="userSpaceOnUse">
<stop offset="0.25" stop-color="#1B4C39"/>
<stop offset="0.47" stop-color="#1C8E64"/>
<stop offset="0.81" stop-color="#1FF9AB"/>
</linearGradient>
<linearGradient id="paint1_linear_261_70" x1="52.7519" y1="111.979" x2="53.342" y2="6.57923" gradientUnits="userSpaceOnUse">
<stop offset="0.27" stop-color="#1B4C39"/>
<stop offset="0.34" stop-color="#1B513C"/>
<stop offset="0.43" stop-color="#1B6147"/>
<stop offset="0.53" stop-color="#1C7C58"/>
<stop offset="0.64" stop-color="#1CA171"/>
<stop offset="0.75" stop-color="#1ED090"/>
<stop offset="0.84" stop-color="#1FF9AB"/>
</linearGradient>
<linearGradient id="paint2_linear_261_70" x1="56.9773" y1="71.0119" x2="54.7279" y2="32.9355" gradientUnits="userSpaceOnUse">
<stop offset="0.17" stop-color="#1B4C39"/>
<stop offset="0.23" stop-color="#1B6248"/>
<stop offset="0.45" stop-color="#1DB37D"/>
<stop offset="0.61" stop-color="#1EE59E"/>
<stop offset="0.69" stop-color="#1FF9AB"/>
</linearGradient>
<linearGradient id="paint3_linear_261_70" x1="56.7116" y1="100.51" x2="47.8071" y2="25.148" gradientUnits="userSpaceOnUse">
<stop offset="0.17" stop-color="#1B4C39"/>
<stop offset="0.23" stop-color="#1B6248"/>
<stop offset="0.45" stop-color="#1DB37D"/>
<stop offset="0.61" stop-color="#1EE59E"/>
<stop offset="0.69" stop-color="#1FF9AB"/>
</linearGradient>
<linearGradient id="paint4_linear_261_70" x1="53.7575" y1="84.3044" x2="52.2496" y2="70.3893" gradientUnits="userSpaceOnUse">
<stop offset="0.17" stop-color="#1B4C39"/>
<stop offset="0.23" stop-color="#1B6248"/>
<stop offset="0.45" stop-color="#1DB37D"/>
<stop offset="0.61" stop-color="#1EE59E"/>
<stop offset="0.69" stop-color="#1FF9AB"/>
</linearGradient>
<clipPath id="clip0_261_70">
<rect width="106" height="107.1" fill="white" transform="translate(0 0.709473)"/>
</clipPath>
</defs>
</svg>
