<svg width="259" height="51" viewBox="0 0 259 51" fill="none" xmlns="http://www.w3.org/2000/svg">
<path fill-rule="evenodd" clip-rule="evenodd" d="M30.0232 18.1832L29.1914 17.88L7.34667 9.96617L17.6043 6.12974L18.063 6.29299L18.9221 6.60784L30.0426 10.6308L39.0759 13.8882L39.9195 14.1913L40.448 14.3818L30.8472 17.88L30.0232 18.1832ZM24.3716 9.88453L22.1716 8.97109L19.5362 9.90395L21.7362 10.8213L24.3716 9.88453ZM22.4281 12.5005L20.6168 11.7464L18.4556 12.516L20.2591 13.2779L22.4281 12.5005ZM27.0924 11.7231L25.2811 10.969L23.1122 11.7464L24.9235 12.5005L27.0924 11.7231ZM19.9676 7.99937L18.1213 7.24141L15.9835 8.01103L17.8259 8.77675L19.9676 7.99937ZM15.9796 9.11494L12.2132 10.4404L15.3538 11.7464L19.1203 10.4171L15.9796 9.11494ZM11.8361 4.83927L13.9195 4.13961L15.6725 4.85482L13.5853 5.55835L11.8361 4.83927ZM7.77424 5.8421L4.96008 4.68768L8.31844 3.56435L11.1326 4.71489L7.77424 5.8421ZM4.80072 5.83433L7.25728 6.84106L4.32651 7.82445L1.86995 6.81773L4.80072 5.83433ZM3.06325 2.72087L5.1039 3.55657L2.67066 4.37284L0.630005 3.53714L3.06325 2.72087ZM8.29506 1.20107L9.63998 1.75302L8.03855 2.28942L6.69755 1.74136L8.29506 1.20107ZM3.23427 0L4.57528 0.548061L2.97773 1.08835L1.63284 0.536401L3.23427 0ZM152.338 43.1143C146.293 43.1143 143.138 39.0369 143.138 33.5291V30.4195C143.138 24.9117 146.293 20.8303 152.338 20.8303C158.383 20.8303 161.55 24.9039 161.55 30.4117V33.5213C161.55 39.0369 158.383 43.1143 152.338 43.1143ZM156.458 30.4117C156.458 27.2516 155.035 25.211 152.338 25.211C149.641 25.211 148.218 27.2516 148.218 30.4117V33.5213C148.218 36.6775 149.644 38.7181 152.338 38.7181C155.031 38.7181 156.458 36.6775 156.458 33.5213V30.4117ZM174.668 43.1143C173.432 43.1046 172.197 43.015 170.972 42.8461V49.6638C170.972 49.87 170.89 50.0678 170.744 50.2136C170.598 50.3593 170.401 50.4413 170.195 50.4413H166.654C166.448 50.4413 166.25 50.3593 166.104 50.2136C165.958 50.0678 165.876 49.87 165.876 49.6638V22.8632C165.876 22.288 166.031 22.0548 166.918 21.8254C169.448 21.1835 172.047 20.8468 174.657 20.8226C180.853 20.8226 183.857 24.4802 183.857 30.4856V33.4513C183.869 39.4567 180.865 43.1143 174.668 43.1143ZM178.785 30.4856C178.785 27.3294 177.976 24.9816 174.668 24.9816C173.431 24.97 172.195 25.0598 170.972 25.2498V38.6871C172.198 38.8495 173.432 38.9404 174.668 38.9592C177.976 38.9592 178.785 36.627 178.785 33.4513V30.4856ZM205.084 33.7234H192.529V33.8361C192.529 36.0712 193.455 38.7259 197.15 38.7259C199.961 38.7259 202.616 38.4966 204.232 38.3372H204.35C204.738 38.3372 205.041 38.5316 205.041 38.9164V41.4585C205.041 42.0726 204.929 42.3408 204.232 42.4574C201.775 42.948 199.271 43.1669 196.766 43.1104C192.914 43.1104 187.438 41.0348 187.438 33.4474V30.6022C187.438 24.5968 190.788 20.8226 196.68 20.8226C202.573 20.8226 205.862 24.8767 205.862 30.6022V32.7595C205.862 33.3736 205.621 33.7234 205.084 33.7234ZM200.731 29.9492C200.731 26.9446 199.075 25.211 196.689 25.211C194.301 25.211 192.568 26.9057 192.568 29.9492V30.1008H200.731V29.9492ZM226.369 42.1153C223.838 42.7541 221.24 43.0895 218.63 43.1143C212.411 43.1143 209.43 39.4567 209.43 33.4513V30.4856C209.43 24.4802 212.431 20.8226 218.63 20.8226C219.867 20.8341 221.102 20.9249 222.327 21.0947V14.2769C222.327 14.0708 222.409 13.873 222.554 13.7272C222.7 13.5815 222.898 13.4996 223.104 13.4996H226.645C226.852 13.4996 227.049 13.5815 227.195 13.7272C227.341 13.873 227.423 14.0708 227.423 14.2769V41.097C227.411 41.6528 227.24 41.8861 226.369 42.1153ZM222.327 25.2654C221.101 25.106 219.866 25.0166 218.63 24.9971C215.319 24.9971 214.51 27.3294 214.51 30.5011V33.4668C214.51 36.6231 215.319 38.9747 218.63 38.9747C219.868 38.9872 221.104 38.8963 222.327 38.7026V25.2654ZM236.957 18.2067H233.222C233.012 18.2068 232.811 18.1259 232.661 17.9809C232.51 17.836 232.422 17.6383 232.413 17.4292V14.0476C232.421 13.8383 232.509 13.64 232.659 13.4949C232.811 13.3497 233.012 13.2691 233.222 13.2702H236.957C237.163 13.2702 237.361 13.3521 237.507 13.4979C237.653 13.6437 237.734 13.8414 237.734 14.0476V17.437C237.733 17.6418 237.649 17.8376 237.504 17.9817C237.358 18.1259 237.162 18.2067 236.957 18.2067ZM236.84 42.8073H233.296C233.087 42.8002 232.888 42.7118 232.743 42.5608C232.597 42.4098 232.517 42.2082 232.518 41.9988V21.8643C232.518 21.6581 232.6 21.4604 232.746 21.3146C232.892 21.1688 233.089 21.0869 233.296 21.0869H236.84C237.047 21.0869 237.244 21.1688 237.39 21.3146C237.536 21.4604 237.618 21.6581 237.618 21.8643V41.9988C237.619 42.2082 237.539 42.4098 237.393 42.5608C237.248 42.7118 237.05 42.8002 236.84 42.8073ZM258.052 42.8073H254.779C254.573 42.8073 254.375 42.7254 254.229 42.5795C254.083 42.4338 254.001 42.2361 254.001 42.0298V41.4157C252.379 42.4734 250.495 43.0589 248.559 43.1065C245.365 43.1065 241.901 41.8783 241.901 36.6775V36.5376C241.901 32.1453 244.595 29.8753 251.296 29.8753H253.722V28.1767C253.722 25.6735 252.606 25.0671 250.332 25.0671C248.237 25.0604 246.143 25.163 244.059 25.3743H243.865C243.475 25.3743 243.172 25.2576 243.172 24.7212V22.2491C243.172 21.8254 243.402 21.5533 243.903 21.4406C246.021 21.0246 248.174 20.8176 250.332 20.8226C255.801 20.8226 258.802 23.248 258.802 28.1767V42.0376C258.8 42.2378 258.721 42.4296 258.581 42.5729C258.442 42.7163 258.252 42.8002 258.052 42.8073ZM253.741 33.2609H251.316C247.817 33.2609 247.04 34.3764 247.04 36.5337V36.6853C247.04 38.5744 247.888 39.0719 249.811 39.0719C251.189 39.0406 252.54 38.6709 253.741 37.9952V33.2609ZM31.6945 18.7819L30.847 19.089V50.8494L41.1164 45.1278V26.4121L52.4547 22.2957L53.4109 21.9459L53.4809 10.8952L31.6945 18.7819ZM40.7511 13.2975L41.5751 13.5967L42.1193 13.795L52.6918 9.96626L42.4341 6.12598L41.1164 6.60796L31.7139 10.0246L39.9193 12.9981L40.7511 13.2975ZM76.6898 42.846C75.8269 43.0085 74.9518 43.0982 74.0739 43.1143C69.7244 43.1143 67.9519 42.1542 67.9519 36.9962V24.9038L64.3331 24.3675C64.1312 24.3546 63.9408 24.2686 63.7977 24.1255C63.6546 23.9823 63.5686 23.792 63.5558 23.59V21.8642C63.5558 21.658 63.6377 21.4603 63.7834 21.3146C63.9293 21.1687 64.127 21.0868 64.3331 21.0868H67.9519V17.9345C67.964 17.7323 68.0497 17.5414 68.193 17.3981C68.3363 17.2549 68.527 17.1692 68.7293 17.1571L72.3092 16.543H72.4647C72.5442 16.5338 72.6248 16.5422 72.7008 16.5673C72.7768 16.5924 72.8465 16.6338 72.9049 16.6885C72.9633 16.7432 73.0091 16.8101 73.0392 16.8843C73.0692 16.9585 73.0827 17.0383 73.0788 17.1183V21.0946H76.546C76.7522 21.0946 76.9499 21.1765 77.0957 21.3223C77.2415 21.4681 77.3234 21.6658 77.3234 21.872V24.142C77.3234 24.3481 77.2415 24.5459 77.0957 24.6917C76.9499 24.8374 76.7522 24.9194 76.546 24.9194H73.0788V36.9962C73.0788 38.9202 73.1954 39.1496 74.583 39.1496H76.6238C77.1252 39.1496 77.4322 39.3439 77.4322 39.7287V42.1542C77.4244 42.539 77.2029 42.7566 76.6898 42.846ZM97.8664 33.7233H85.3153V33.836C85.3153 36.0711 86.2358 38.7258 89.9367 38.7258C92.7468 38.7258 95.4016 38.4965 97.0186 38.3372H97.1351C97.5243 38.3372 97.8267 38.5315 97.8267 38.9163V41.4584C97.8267 42.0726 97.7102 42.3408 97.0186 42.4574C94.5597 42.948 92.0544 43.167 89.5475 43.1104C85.6995 43.1104 80.2192 41.0347 80.2192 33.4474V30.6021C80.2192 24.5968 83.5694 20.8225 89.4624 20.8225C95.3554 20.8225 98.6357 24.8766 98.6357 30.6021V32.7594C98.6357 33.3735 98.406 33.7233 97.8664 33.7233ZM93.5285 29.9491C93.5285 26.9445 91.8726 25.2109 89.4855 25.2109C87.0992 25.2109 85.3657 26.9056 85.3657 29.9491V30.1007H93.5285V29.9491ZM115.96 42.6168C114.329 42.9769 112.662 43.1439 110.993 43.1143C105.986 43.1143 102.212 40.0358 102.212 33.7583V30.1785C102.212 23.9049 105.986 20.8225 110.993 20.8225C112.662 20.7935 114.33 20.9618 115.96 21.324C116.613 21.4794 116.768 21.7127 116.768 22.3229V24.8261C116.768 25.2148 116.461 25.4053 116.077 25.4053H115.96C114.313 25.1906 112.653 25.1009 110.993 25.1371C109.181 25.1371 107.296 26.1749 107.296 30.1901V33.77C107.296 37.7774 109.181 38.823 110.993 38.823C112.653 38.8571 114.313 38.7675 115.96 38.5549H116.077C116.465 38.5549 116.768 38.7453 116.768 39.1301V41.6333C116.768 42.2319 116.613 42.4613 115.96 42.6168ZM138.018 42.8072H134.478C134.268 42.8001 134.07 42.7117 133.925 42.5607C133.779 42.4098 133.699 42.2082 133.7 41.9987V29.331C133.7 25.9844 133.121 25.1371 130.54 25.1371C129.234 25.1371 127.691 25.5996 126.074 26.4431V41.9909C126.074 42.2003 125.994 42.402 125.849 42.553C125.704 42.7039 125.506 42.7923 125.296 42.7994H121.756C121.546 42.7923 121.347 42.7039 121.203 42.553C121.057 42.402 120.976 42.2003 120.978 41.9909V14.2769C120.978 14.0707 121.06 13.873 121.205 13.7272C121.352 13.5814 121.549 13.4995 121.756 13.4995H125.296C125.503 13.4995 125.7 13.5814 125.846 13.7272C125.992 13.873 126.074 14.0707 126.074 14.2769V22.2491C127.539 21.3628 129.156 20.8225 131.904 20.8225C137.218 20.8225 138.796 24.5968 138.796 29.331V41.9987C138.797 42.2082 138.716 42.4098 138.571 42.5607C138.426 42.7117 138.227 42.8001 138.018 42.8072ZM28.3462 18.7819L29.1935 19.089V50.8455L18.9242 45.1278V15.373L28.3462 18.7819ZM17.2645 14.7743L6.55591 10.895L6.62588 21.9457L7.58206 22.2955L17.2645 25.8132V14.7743Z" fill="white"/>
</svg>
