<svg width="321" height="57" viewBox="0 0 321 57" fill="none" xmlns="http://www.w3.org/2000/svg">
<path d="M94.3865 20.9662H84.8686V45.2171H78.002V20.9662H68.5277V14.4038H94.3865V20.9662Z" fill="#1C2642"/>
<path d="M96.8239 31.8312H105.472C105.415 30.8462 105.023 29.9915 104.299 29.2672C103.604 28.5427 102.546 28.1806 101.127 28.1806C99.8516 28.1806 98.8376 28.5573 98.0842 29.3105C97.3309 30.0639 96.9108 30.9041 96.8239 31.8312ZM105.951 37.4376L111.47 39.0022C110.919 41.0014 109.775 42.6529 108.037 43.9567C106.298 45.2315 104.125 45.8689 101.518 45.8689C98.3885 45.8689 95.723 44.8259 93.521 42.7398C91.348 40.6536 90.2614 37.8577 90.2614 34.3519C90.2614 30.9911 91.319 28.253 93.434 26.138C95.578 24.0229 98.1133 22.9655 101.04 22.9655C104.4 22.9655 107.037 23.9506 108.949 25.9207C110.89 27.8619 111.861 30.5709 111.861 34.0478C111.861 35.1487 111.818 35.8296 111.731 36.0904H96.6935C96.7514 37.2782 97.2585 38.2779 98.2146 39.0892C99.1707 39.8714 100.301 40.2626 101.604 40.2626C103.836 40.2626 105.284 39.3209 105.951 37.4376Z" fill="#1C2642"/>
<path d="M123.882 29.0499C122.462 29.0499 121.274 29.5278 120.318 30.4841C119.391 31.4402 118.927 32.7584 118.927 34.4388C118.927 36.0904 119.406 37.3942 120.362 38.3503C121.347 39.3064 122.549 39.7845 123.969 39.7845C125.157 39.7845 126.127 39.4802 126.881 38.8719C127.663 38.2345 128.184 37.4667 128.445 36.5685L134.269 38.3503C133.747 40.4074 132.574 42.1748 130.749 43.6524C128.952 45.1301 126.692 45.8689 123.969 45.8689C120.724 45.8689 117.971 44.7968 115.711 42.6529C113.48 40.4798 112.365 37.7419 112.365 34.4388C112.365 31.1069 113.452 28.369 115.624 26.2249C117.826 24.0519 120.535 22.9655 123.751 22.9655C126.562 22.9655 128.865 23.6898 130.662 25.1384C132.458 26.5871 133.617 28.369 134.139 30.4841L128.228 32.2659C127.967 31.3386 127.475 30.5709 126.75 29.9625C126.026 29.354 125.07 29.0499 123.882 29.0499Z" fill="#1C2642"/>
<path d="M142.724 32.5267V45.2171H136.118V13.752H142.724V25.0081C144.028 23.7043 145.867 23.0525 148.243 23.0525C150.938 23.0525 152.966 23.8637 154.327 25.4862C155.719 27.0797 156.414 29.1369 156.414 31.6576V45.2171H149.808V32.7875C149.808 31.6576 149.504 30.7594 148.895 30.093C148.316 29.3975 147.446 29.05 146.288 29.05C145.273 29.05 144.433 29.3831 143.767 30.0495C143.13 30.6869 142.782 31.5126 142.724 32.5267Z" fill="#1C2642"/>
<path d="M169.701 39.7845C171.062 39.7845 172.206 39.3209 173.134 38.3937C174.089 37.4667 174.569 36.1338 174.569 34.3954C174.569 32.657 174.089 31.3386 173.134 30.4406C172.206 29.5134 171.062 29.0499 169.701 29.0499C168.368 29.0499 167.224 29.5134 166.267 30.4406C165.312 31.3677 164.833 32.6859 164.833 34.3954C164.833 36.1048 165.312 37.4376 166.267 38.3937C167.224 39.3209 168.368 39.7845 169.701 39.7845ZM169.701 22.9655C172.974 22.9655 175.698 24.0373 177.871 26.1814C180.073 28.3255 181.174 31.0634 181.174 34.3954C181.174 37.7273 180.073 40.4798 177.871 42.6529C175.698 44.7968 172.974 45.8689 169.701 45.8689C166.456 45.8689 163.731 44.7824 161.53 42.6094C159.328 40.4363 158.227 37.6984 158.227 34.3954C158.227 31.0924 159.328 28.369 161.53 26.2249C163.731 24.0519 166.456 22.9655 169.701 22.9655Z" fill="#1C2642"/>
<path d="M189.86 53.4745H183.254V23.6174H189.642V25.8338C190.135 25.0806 190.946 24.4431 192.076 23.9216C193.234 23.3712 194.538 23.0959 195.987 23.0959C199.058 23.0959 201.493 24.1534 203.288 26.2685C205.114 28.3545 206.027 31.0491 206.027 34.352C206.027 37.6551 205.056 40.3785 203.115 42.5226C201.203 44.6377 198.74 45.6951 195.727 45.6951C193.002 45.6951 191.047 44.9708 189.86 43.5221V53.4745ZM198.117 38.3938C199.074 37.4377 199.551 36.1049 199.551 34.3955C199.551 32.686 199.074 31.3678 198.117 30.4407C197.189 29.5135 196.031 29.05 194.64 29.05C193.279 29.05 192.119 29.5135 191.164 30.4407C190.236 31.3678 189.772 32.686 189.772 34.3955C189.772 36.1049 190.236 37.4377 191.164 38.3938C192.119 39.321 193.279 39.7846 194.64 39.7846C196.031 39.7846 197.189 39.321 198.117 38.3938Z" fill="#1C2642"/>
<path d="M213.113 31.8312H221.762C221.705 30.8462 221.313 29.9915 220.588 29.2672C219.894 28.5427 218.836 28.1806 217.417 28.1806C216.142 28.1806 215.127 28.5573 214.374 29.3105C213.62 30.0639 213.201 30.9041 213.113 31.8312ZM222.241 37.4376L227.759 39.0022C227.21 41.0014 226.065 42.6529 224.327 43.9567C222.588 45.2315 220.415 45.8689 217.807 45.8689C214.678 45.8689 212.012 44.8259 209.811 42.7398C207.638 40.6536 206.55 37.8577 206.55 34.3519C206.55 30.9911 207.609 28.253 209.724 26.138C211.868 24.0229 214.403 22.9655 217.329 22.9655C220.69 22.9655 223.327 23.9506 225.239 25.9207C227.18 27.8619 228.151 30.5709 228.151 34.0478C228.151 35.1487 228.108 35.8296 228.021 36.0904H212.983C213.041 37.2782 213.548 38.2779 214.505 39.0892C215.46 39.8714 216.59 40.2626 217.894 40.2626C220.125 40.2626 221.574 39.3209 222.241 37.4376Z" fill="#1C2642"/>
<path d="M251.472 13.752V41.3492C251.472 42.653 251.529 43.9422 251.646 45.2171H245.299C245.184 44.5217 245.126 43.8264 245.126 43.1309C244.605 43.8843 243.822 44.5073 242.779 44.9998C241.765 45.4633 240.621 45.6951 239.346 45.6951C236.274 45.6951 233.725 44.6377 231.698 42.5226C229.669 40.3785 228.655 37.6551 228.655 34.352C228.655 31.107 229.639 28.427 231.61 26.3119C233.58 24.1678 236.087 23.0959 239.128 23.0959C242.085 23.0959 244.024 23.8347 244.952 25.3124V13.752H251.472ZM236.695 30.4407C235.768 31.3678 235.304 32.686 235.304 34.3954C235.304 36.1049 235.768 37.4377 236.695 38.3938C237.651 39.321 238.81 39.7846 240.171 39.7846C241.533 39.7846 242.678 39.321 243.605 38.3938C244.561 37.4377 245.04 36.1049 245.04 34.3954C245.04 32.686 244.561 31.3678 243.605 30.4407C242.678 29.5135 241.533 29.05 240.171 29.05C238.81 29.05 237.651 29.5135 236.695 30.4407Z" fill="#1C2642"/>
<path d="M261.858 45.2171H255.252V23.6173H261.858V45.2171ZM255.817 19.7493C255.063 18.9961 254.687 18.0834 254.687 17.0113C254.687 15.9394 255.063 15.0267 255.817 14.2734C256.57 13.5201 257.468 13.1434 258.511 13.1434C259.583 13.1434 260.495 13.5201 261.249 14.2734C262.031 15.0267 262.423 15.9394 262.423 17.0113C262.423 18.0834 262.031 18.9961 261.249 19.7493C260.495 20.5027 259.583 20.8793 258.511 20.8793C257.468 20.8793 256.57 20.5027 255.817 19.7493Z" fill="#1C2642"/>
<path d="M264.168 39.2629C264.168 37.4376 264.762 35.9744 265.949 34.8735C267.137 33.7435 268.672 33.0336 270.555 32.744L275.641 31.9616C276.684 31.8168 277.206 31.3242 277.206 30.4841C277.206 29.8177 276.916 29.2672 276.337 28.8325C275.785 28.369 275.019 28.1371 274.033 28.1371C272.931 28.1371 272.048 28.4559 271.382 29.0933C270.744 29.7017 270.397 30.4406 270.339 31.3098L264.602 30.1363C264.747 28.34 265.631 26.703 267.253 25.2254C268.904 23.7187 271.179 22.9655 274.076 22.9655C277.35 22.9655 279.755 23.7477 281.291 25.3123C282.855 26.8767 283.638 28.876 283.638 31.3098V41.8705C283.638 43.2322 283.724 44.3477 283.898 45.2171H277.945C277.8 44.6376 277.727 43.8263 277.727 42.7833C276.481 44.8114 274.454 45.8254 271.643 45.8254C269.354 45.8254 267.528 45.188 266.167 43.9132C264.834 42.6094 264.168 41.0593 264.168 39.2629ZM273.251 41.0448C274.381 41.0448 275.323 40.7117 276.075 40.0453C276.83 39.3788 277.206 38.2779 277.206 36.7422V35.7861L273.12 36.4381C271.499 36.6987 270.686 37.4955 270.686 38.8284C270.686 39.4367 270.889 39.9583 271.294 40.3928C271.729 40.8275 272.382 41.0448 273.251 41.0448Z" fill="#1C2642"/>
<path d="M37.2769 32.4376C37.2772 32.8127 37.3761 33.1811 37.5637 33.506C37.7513 33.8306 38.021 34.1003 38.3459 34.2879L45.0743 38.1718C45.399 38.359 45.7673 38.4575 46.142 38.4573C46.5168 38.4572 46.8849 38.3583 47.2093 38.1709C47.5339 37.9834 47.8034 37.7138 47.9906 37.3891C48.178 37.0646 48.2766 36.6963 48.2766 36.3215V15.851C48.2766 15.4765 48.1782 15.1085 47.9909 14.7841C47.8037 14.4597 47.5343 14.1903 47.2099 14.003L29.4818 3.77339C29.1573 3.58629 28.7893 3.48784 28.4147 3.48792C28.0402 3.48799 27.6723 3.5866 27.3477 3.77382C27.0233 3.96106 26.7538 4.23032 26.5664 4.5546C26.3789 4.87889 26.28 5.2468 26.2797 5.62138V13.3915C26.2798 13.7663 26.3784 14.1345 26.5656 14.4592C26.7529 14.7839 27.022 15.0538 27.3463 15.2418L36.2081 20.3533C36.5328 20.5402 36.8023 20.8094 36.9895 21.1339C37.1769 21.4585 37.2752 21.8266 37.2748 22.2012L37.2769 32.4376Z" fill="#82A5FF"/>
<path d="M24.1394 29.7879V40.0243C24.1392 40.3992 24.2376 40.7675 24.4249 41.0924C24.6121 41.4172 24.8815 41.6869 25.206 41.8746L31.9344 45.7585C32.2591 45.9458 32.6274 46.0442 33.0022 46.0441C33.3769 46.0438 33.7451 45.945 34.0696 45.7575C34.3942 45.5701 34.6635 45.3004 34.8509 44.9758C35.0381 44.6513 35.1368 44.283 35.1368 43.9083V23.4377C35.1366 23.0626 35.0377 22.6941 34.85 22.3695C34.6625 22.0446 34.3926 21.7749 34.0678 21.5874L16.3421 11.3533C16.0176 11.1655 15.6494 11.0664 15.2746 11.0662C14.8998 11.0659 14.5315 11.1644 14.2068 11.3518C13.8821 11.5391 13.6126 11.8087 13.4252 12.1334C13.2379 12.4581 13.1395 12.8264 13.1398 13.2013V20.9715C13.1392 21.3461 13.2376 21.7143 13.4249 22.0388C13.6122 22.3632 13.8817 22.6326 14.2064 22.8195L23.0727 27.9377C23.3971 28.1255 23.6665 28.3954 23.8537 28.72C24.0409 29.0447 24.1394 29.413 24.1394 29.7879Z" fill="#0077CC"/>
<path d="M20.9303 29.174L3.20229 18.9467C2.8776 18.7594 2.50938 18.661 2.1346 18.6611C1.75982 18.6613 1.39169 18.76 1.06719 18.9476C0.742685 19.1351 0.47324 19.4047 0.285914 19.7293C0.0985882 20.0539 -1.96521e-05 20.422 5.0067e-08 20.7968V41.2697C-8.10871e-05 41.6443 0.0984555 42.0123 0.285699 42.3366C0.472944 42.661 0.742293 42.9304 1.06667 43.1176L12.0663 49.4589L18.7948 53.3428C19.1192 53.5306 19.4873 53.6297 19.8621 53.6299C20.237 53.6302 20.6053 53.5317 20.93 53.3443C21.2547 53.157 21.5242 52.8874 21.7116 52.5627C21.8988 52.238 21.9973 51.8696 21.9969 51.4948V31.0242C21.9968 30.6495 21.8982 30.2812 21.711 29.9565C21.5237 29.6318 21.2545 29.362 20.9303 29.174Z" fill="#004ED6"/>
</svg>
